<mxfile host="app.diagrams.net" modified="2023-07-24T10:00:28.040Z" agent="Mozilla/5.0 (Windows NT 10.0; Win64; x64; rv:109.0) Gecko/20100101 Firefox/115.0" etag="CTA8zluhEurwBg__ZEKa" version="21.6.5" type="github">
  <diagram name="第 1 页" id="NHlQ2r2SouN6LM2jyy0P">
    <mxGraphModel dx="1434" dy="754" grid="1" gridSize="10" guides="1" tooltips="1" connect="1" arrows="1" fold="1" page="1" pageScale="1" pageWidth="2336" pageHeight="1654" math="0" shadow="0">
      <root>
        <mxCell id="0" />
        <mxCell id="1" parent="0" />
        <mxCell id="cLg7_qIMpq1HG2zk-ft2-2" value="" style="shape=image;verticalLabelPosition=bottom;labelBackgroundColor=default;verticalAlign=top;aspect=fixed;imageAspect=0;image=data:image/jpeg,/9j/4AAQSkZJRgABAQAAAQABAAD/2wBDAAIBAQEBAQIBAQECAgICAgQDAgICAgUEBAMEBgUGBgYFBgYGBwkIBgcJBwYGCAsICQoKCgoKBggLDAsKDAkKCgr/2wBDAQICAgICAgUDAwUKBwYHCgoKCgoKCgoKCgoKCgoKCgoKCgoKCgoKCgoKCgoKCgoKCgoKCgoKCgoKCgoKCgoKCgr/wAARCADgAOADASIAAhEBAxEB/8QAHwAAAQUBAQEBAQEAAAAAAAAAAAECAwQFBgcICQoL/8QAtRAAAgEDAwIEAwUFBAQAAAF9AQIDAAQRBRIhMUEGE1FhByJxFDKBkaEII0KxwRVS0fAkM2JyggkKFhcYGRolJicoKSo0NTY3ODk6Q0RFRkdISUpTVFVWV1hZWmNkZWZnaGlqc3R1dnd4eXqDhIWGh4iJipKTlJWWl5iZmqKjpKWmp6ipqrKztLW2t7i5usLDxMXGx8jJytLT1NXW19jZ2uHi4+Tl5ufo6erx8vP09fb3+Pn6/8QAHwEAAwEBAQEBAQEBAQAAAAAAAAECAwQFBgcICQoL/8QAtREAAgECBAQDBAcFBAQAAQJ3AAECAxEEBSExBhJBUQdhcRMiMoEIFEKRobHBCSMzUvAVYnLRChYkNOEl8RcYGRomJygpKjU2Nzg5OkNERUZHSElKU1RVVldYWVpjZGVmZ2hpanN0dXZ3eHl6goOEhYaHiImKkpOUlZaXmJmaoqOkpaanqKmqsrO0tba3uLm6wsPExcbHyMnK0tPU1dbX2Nna4uPk5ebn6Onq8vP09fb3+Pn6/9oADAMBAAIRAxEAPwD8PIjuXG3nsakjeUEKV4zTYhs+dTj2qaFSy+cT900Adl4NijeeP5vrXsfh3yYbNZChO5cV4x4SmEU8Wa9k8KXLTRRwBAeBQB1ngLSc3Id14xxmvWPDlgT5YPQVxHhCw+YSFP4R+ea9S8L6fGyxsV+lAHS+G4DGqiIYGa9B0O3QiNguTjmuU0XT8FdgwM13GjeWkQUJyBzQBu6fEHj6VtWUe1cDpx1rL0nYYxtHWtq0VCnzCgC6MnAHpVzToDL8gHzA81Tj2hBJjnpWlprtG5dVzQBpwQxgAooyOtXPthMWxUxj0qpBKg5Y4yOeKsKwK4QdaAHoPMQqyjmoLsIiZK8inNJhcHgjvUd84YAg4oAp3JMgB9Kz7nacnHPars7gt8rcVVuUVV3YoAyNUQ4ya5/UYWkztPXrXR6jlsggdKxLm2yWbd0NAHL69ZI67ccmuB8YaW2xlVMivStYwSw28gVxPiUMUYk8E0AeReLdOit4ju79q46KzMc5mjX3r0bxnp4ljZj1wa4qSzeFGYEYxQBxfxAVXs3fOTsPBr5r8e2DJeyyg4BY19JePXP2Vwo52npXzn4+kLXMqE8AmgDjXzt2KO/OKSBArEY596Ub8eYvTNNhYyucDnNAFGOIt8y9PU1LGhC7N4weTUayqEGWp8KRt8xbigDe8N3bpsdzgCQDNe3fDOT7Wyjd/CMflXgmkLFLOIw5wDmvb/g5coyRxq3PHWgD3jwjZskMYOCT2r0rwtAYbdC+M+9eceCcTSK3mE4Ar07RISipwMHqcUAdboRIUEV1elbggKj73Wuf8L2S7QzNwSDXUwWzBMIelAG3preUgBNbNnP8oUVz1jIVCqetb1ijttPr1oA07cmQbQOK0LFnXOaowQOSvUc1o2tsyNkk/SgC9G67fm9OlW7abIAAqkgCAnA6VLDJIoyKAJ5lHmfMaq3jgHbngVOzmTGTzTJI1b5XAoAoOcDIFV7kykZUdBWlJbE/dXAqCSJQmSKAMO/jcxl2GKyJosxs4P8AFXRajEGiI6D1rAuykYKgEnNAGLqVssmcHnHNcR4sskhVz7mu9uAp3Ej865LxbGrEhlyNvpQB5Z4jRp4XVAOBXF6lF5Vu6lRXe6vEi3MoHAbge1cXrEA3SQnqTwaAPI/ifqX2GBnJxxXzz48lE7uqL1zmvb/jy/lQMyvgKxGK+f8AxDqLys+eQx4oAyCNykBhgDIFNiUK2cjPWiYRrhxIcfxUQqqyB2b5T3zQBnwpCvyyA+2BUqgKoyMZNRq4RugyPWpHBk2SE8ZoAv6HiK9SMOPmboRXsXwyLWshC5z2NeM6K6HUkbb91q9m8DGXCTouAQKAPoT4dzDMcbgZwOa9c0NBKsaZ+teHfDPVBJeIJOgxXtPh2/RygQZGOcUAejaBEREqKpztxiuhgiLrnIBXtnrXLaHrMENuq5O7+96VuW2sxiEuHXOerUAb9namTa23BFb2nRGMK7Vw1v49tYJxbyMWPpmt+w8ZW8iqN+CT84z0HagDtIgcDmtCJcKAOtc3puuW04DRsNv8Jz1rf06+tmcAydRxQBYZCvWlQnBHakn/AHwwJBgHtT1CrHgHNACK7JID2NWo4xKdx61WjUlw+7O08A1aWZLfPmsuCelACyqEiKTcelZt1IkS7eMe9P1HWYk3SSSEnOF3cY9xXKeJfFcdtCzLKpRenz4JoA0tQv4VQhmxXPXt/bBSVkB5rltc8exsMjUEGf7zAY9sVkr4gN9IHTU4Nvc+ev8ALNAHTXN4CWOeMdq5/X7mB1ZWI+7xVy1SO4jyurRuWHAjkBrK1zSCyMyTkuAeCaAPOvFUv2edsDgmuT1Nku33JjIPNbXxCuLuyJY84Jye1clbXzvB9pTkt2oA8X+N6eaksbrkAk18+a+FEnlqv8VfSHxstVS1mkIy3OfavnHxMpjZgFP3/wCtAGTdiKGPay5zTYnjJClDyKa8hkYgqxweKlj2s67lIH8qAM5Fy2Smc9c07IAwRwOgpAVIwxOfahEdm+8cdgaALmhyI96hXAG4ZJ+te+eDNPU6JFcQrgBOSK+e7a6a1ZWUjg5+7XqvhX456do+ippU2lSuwTGV4/pQB6z4W8Y2eiOftVxsKHJwMnHt616F4f8AjlL9kT/hHfDNzfFxlQG8s4HU/MK8V0e1N9pUOv3UAEl02+IMOAhGQPrXqvw51NYIIzOrAhfmDH+VAHo2meL/AIu+IoFl0HR4NNYjhdQG8H/vg10mi2Pxm1a0MGvatpkb9pLJXUgf8Cqn4d8Q20ewmTAC8hq6bTvGOkwMN14Bgc5xQBnr8BfiJrsyufizqdq7MMeTDG4A/EV9b/BL9lr4I3Xwwjb4p/FPWtL1WKJmW4s9IFwJ8Dq3zDB47etcV+xv4w+DmrfHTw1ZfEzxFaLo7alH/aCNcKCI+/evvf8Ab88W/smeBPhja3fgnxDoUt/dLGlvb6XdQyHysYJPlk4OMdeaAPy48W6p468C+KtTsfDGqf2rpkF662DTwrDJLGD8pIOdpNWvB37SGo2t0tt8QPCUulneFjl+0CVWH97KjirXxAvdH1jVpbvSboAN93HeuT0totZ12Hwjq9uTHdEopbp0J/pQB9AaR4x0vUrYXUN4mxgCDu7GtCLxRpcgxBfRPt+9tbpXwZpvw8/aD8ReO9R8LR/Ga40zTIbkxpBaFGKoecYZff1r0/wR+xTfeH4rie8+MWs3bXiYmdxgnOf7rcdaAPqWTxXpxIC3SMRyCp4rg/ib+0Bp3hS6j0XRbRtQ1O4B8q3iyQOcfMRnaORzXy98QP2KPEvhGb+1fCfx01q0AY4ilvJpAT/386Vb/ZtOt+GrDxJc+M/EI1bUbDVUtoL11O4IYgxHJJ9KAPZpNc+OXjK5jkn1ex8PQ5y0TxLc7h7EEEV9ZfsofshfCP49Cw0+OHV7vWYoF/tSY6h/o7/9NBGR8ozxjNfHWl+Ib/V7gSXE7CPjAFfSP7Hv7V+u/s2+LRrujRwzLJCEmgu3ISRRzg45oAoftt/8E9NE/Z18Y2+n6lfXMkeowvNbeY4KlA2Djjpnj8K+cNT+A3w5Tcf7JRy3VskH9DX0D+3x/wAFCov2gPHGnXet21rbS2lm0Ntb2Ls4wXJ/iOetfMes/Hjw7HdpZT6hcQyNn5Z4Nv65oAJPgn4UspPOsZLi32/dCTN/jWVr3hnxHpiv/wAI/wCLZrdgvy+Yu8D8zWrF43+3Riaxv4pEPYMCapaxrIu7R2jJD45oA8x8Q+IfinpkUkOuanbavEM52WqRMB/WqXhXxJaalau4nAGSGQnlT6Vd166ur67e3g3Fi3G31ryvxp8Cfi9rPiG4Pw38SG1gCrJNFux87ct2PegDT+ObWv8AYjzxyDIznB6181eJrqOV9qHndXr+vfBf4w6Dok114z8SPPsGREmGB/QGuN8O/A7xT8RFnudKjUCF8PlsGgDzdhuY7CaW33l9jZ68jFb3jf4e+IfAd4LPVIcKTww/xrEjnSJ2KgkY6n1oAoNtUYPf0rvvhV8LJfETpq2pxMLcthOOtcNpdlNqd9b2EGN80oUZGetfefwr+CFnp/geztWgQgWaSOSv8RQE0AfNfjH4YaFpfiax0uzto2ErDem3617B4U+Avg3UPD3mDw3bGZ48BvL5Bx1rj/HGlXNn8X/sytlIG+TPpk17/wDDK1SXT45N+AUyOKAPOfDvhKz1Tw84tVULZTPBsUf3Dt/pVnStNnsZMIrqo9R1ru9B0K00fxBrHhxY8RviaMsMb2bLNj15NYt7aLHePBHxs/vUAVbvxRcWirCsbsSPlVSQc1QvL3xfqMLCRniUAlQpOcdua6LTPDq39ykwGWHU4rttE8Ih4wktrG/HLMvJoA87+AXiDwtovi+a58fszBYxsMh75+ldS2oWXiH4nGLwadli0gEhj6AcV1dj8AvCuvXvn3GkpubrtWu+8FfBfwt4VxdWWnLG4Pz56k0Acza3GpabKtiEM6E4Bc+v0pdY1O18LTJ4kec4tMs2exwRxXpGp6ZpkcRLRL8o+UBRkGvHfjhrNhZaJJZx25keZwiJjGSTgn8KAKnw31L+1fELeKhIQ2p3Szpn+5jH9K+kNAvTJYiQNjCjdnuMV8x/DGJdNl03SycrZ2ixr+Zr6E8P6sstqgAwpTFAGL8WrqExru+6p/Q14Stk/gL4oy+God0tt4kkF+GfoHPyAD8Fr2X4jXSXQaI8MOMD0ry34gzXoj0rxChLSaVKAQU5aPGAPzOaAPXtJ0uw0+zCQtvdE3OrVm3keu6lqu8wypbhflCKeat/DTxdp3iXTokZFL4GXz9413EFvaggqNwA5AGKAPl74rW+teFPGsPiT7A9xGku7ay7uOeK4j4qeK9X+MHi+LWE0JbdgFVo4LcRrxgdAAO1fZfiLwl4a1q123lhE5I4LrnFcNe/CzRtPLSWdlCMH7yL1oA+ftK8KeK9EVb22d48Lkhjwa2dO8RaleI9tdKfMxzivR9e8LkKRLnZ6AVyV1oUFpLJcrGOOF560AZXhjw2LnVftTgYBy2ewrpPhRoyahZ3uvBQVuJiit7KSKx/+Eu0zw7AYUTzLqRdqQpyS3vXffDTw6fB/wAOrXSJsPOC8jsT03MWx+tAHCfF7QYLnSprcRqRtOMjrXknwFeHRNX1OwWPLzOSsZHsBXt/xGVJ7Wb5+3T61498H7ZIfi/PbTL+7OCAfcmgDj/2pvA9w/g2fWbuHDxzKw4+6OTXzANpGUHA5r9Dv2wvBVrYfB/V9QEIAS2Zhkd9tfnhKrlznoD2oAl8IXcOleI7C9k5EVyr/lX6deDprZPAVvfNIoVtPU5P+5X5aW04juISWGVkB/Cvv34dfEVPEHwR06eOfLTWmwAH0yP6UAeT+M5U1L4uzXMTArkDI+pr2H4eamLCBEd+AmBXiEDFvHs4mVuG65r1DTr8W9ugAIGOOeaAOx8fWV5r8UWp+HLtYL23X5GPIcdxxXJQ6j4zt7kxeIfA9ywUAteRldrfrmuj8MXBvrpFJyo42npmvUPC+kWtzEomjVwOMEUAeS6R8XfhfpNwLPVvElraz5x5czbSDXY6J8avhRkD/hPdOyDyDcLxXqdp8NPCl/8AvLrw5ZSEjq1qhP8AKrUfwT+H0ozJ4K0x8/3rCM/+y0Ac/wCF/ih4A1N0XTfFtjKTjHkzqx/nXoHhufw/q8FxdDWmHkJuO6M4P09ap6b8Gfh5ZMslr4F0yJuxisUU/oK3rXwfZwRiO3sI40B6KuKAORvvE+j6nC0+mXEkxWTa8RhZePXkV5r8QdJn1W8/tHW7ZESJWNvEo+77/jXt+vabpmlWkkgRQQuRnvXhXxS8SxtNJaxYwTgvnmgDL8EJG2sB4/QYr3Xw/ATpikf3K8U+FWnm71ENxjIPJr3zTrdYtPURjjZ3FAHnfju4ZNS+foOKp2emafq1i0NxArqw5BFWPiPDMty8hPIrO8F6qrkW8xHXFAE/hPwfrHhGWaXw4BJFI2/y5huKj0HpXaXHxM1fTLFYo/hjq9/Ii4b7F5ZLH6E1d8M2okAMpDY7HsK6i00BmUS2yDNAHmtx8X/FDx4f4I+KLfPRjZKw/HDVWl8VfEHUEH2HwNKpYZVboMmPY8GvYbfTLuLALFiexFW49OmU4MSkEckrQB8061pv7RmpXxjt/h9pywMcGb+1RlR67SOfpWHqPwD+LmtXqz654whtrQ/6y1ggw4+jqa+qbrSjvOYxt7EjpWJq+lqYjGwB96APAfD3wY8NeCJ/teLi6nLZ8y8l8wg+oJFdBJqrQwtEZCB9a6XxbZmHO3kCuE1ucohbOKAMHxncrNbuwH1HrXl/gdY0+LCybym/px6ZNd14hvPNiaIv06V57pFylt8RrC5nkCKspBPrk4oA7L9tDxysvwFv7K4nHmzo0YXODnFfn9NMoO3eOQTzX1T+33rMi6PZ2NnMRHLeuxUHttr5Snjjz15AxQBTCujh8Dd7jtX2D+zW4vPhJZz5UrBCNqkfU/1r5B+0xOQ8i9TivqH9mfxTpUHwvlsDPhkJXbn0AoAW3miuvGVzMAMiTFdlHOQY0D4Fee6PcyXHia4lUDa0mc5rt7XzZGV1TjAOc+lAHfeCJv36gsDx+tez+CwioijPzEV4d4BlWa+BB7DivfPh7pzy28TEenUUAd/oUB8sAr29K6WwsgdqhOo7is7QLNVjCPgnHFdNpVsWw7LwOKAEt9MjP3kxgVDextGhWM8jpW1HCineR9RWfrrRQQNO/BCkigDy74u69DpWku00vzsCAoNfO+pR3msX73Fwp8tm+UZr0b4na1N4k8STJvJiibAHbPOa5u1t4ri+SFUB+bB9KAOr+D3hGV2WQqRjnpXs0WklbJQvGBisr4Q+G7RraEscBgMtXpreFYRGWtm8xVX+GgDwv4i+G3bc6pnI9K8zl0vUNIu/tlqxwr5KivoPx3YwRiRJVAGOM15VfWcEtw8eABnqfSgDa+Fvi+01G4FpcPsfoQ1eyaDarJDvQcAYFfPCaW9lMuoWAKsjAnbxmvb/AIP+Kv7Z0dBOwLhtpH0oA60aewAIiB4p40uR/nduPStRUhYABh0oaNdxjyBxzQBz95aoxZQ3TpXMa7bPEXIbPPSu3u7eFSenPvXO69axyIwQY5oA8q8ZWzYZ+mRXlviWZUkMJYda9j8e2BWF2z0FeLeKol+2E8n5qAOU8SWhEbS7uB3rzXVgz+KbV1XOydT+or1TxNF5WmszDORnFeS+ILiWLWYhajEnmfKDQBy37c82bLRtvzFmYsPT5RXzc+1svt78V9Dfti6Nrj+HLDX7gbo4QAxHQZwK+b5dUhJDjhfagBscaq6yOOQpyPevoj9mHQoJvAdzeNy7u20Z6dK+dBcRkbsHhsCvdv2UPH+lWlvceGNRlChtzR7jjk5NAGrYMuneKZ7InDCXGM16ZaqsVhthBJ2dc15jqD20nxAuTGv3pMqR9a9N05li0xTKOTFQB1fwmtFk1FTvB55r6R8CRCNI0QdOuK+dvhRBsv1cZxX0H4LkMaoQTzQB6bpjQKVIP1roLG4ULt3cdhmuP026VMBj161s2d+ucmTFAHR/bFZDjjFc74sv3uLSSOPO4oVFTPqOG3LNnA9ax9T1BTKRIwwaAPFr3QZLfWZ7W+yPMkJBPuadqPwqurW0Gt6PeFiOTGK7TxLpttfSMxHzc7TVXToLyziNvvyuBgE5oAg+GnxNfSR/Zd7+7ljO1t3HNeiWHxbNojgXgGffNeReL/Bd3f3BvtPys+cjaMDPviueng8c2f7iVS5HBKr/APXoA7/4k/FQXUzGBt5HZa5rwlpvibxzqBNvGY48ZJIqPwn4P1K/mE2pW5+Y87hXp/huzg8N2u2zgVWK4OBQBzGqeHb/AEC2aPUGywGFA7103wgM+mW3mSJt3SE7T7mq2oQTaxf+dePuCngGtTTHisyqxYA9M0AenaXqiywl25OOKstqAdi7DHpXI6TrG2LO8VbOtq2VLY9MGgDWvbtM9axdVuo26NxnrUU+r73KF88cDNUry5SSHHfrkUAct47Ki3lYnIrw/wATxvNfsyDgGvavGtyjWLjaeeDivJNbgIuWQx8E9T2oA5Hxe0L6aQp5CgGvG/EFzE3ieBjIAPOwTXsviqKKO2kJO7C8qBXgvjvVbDRNQOsXSN5cMxZuaANr9s2/0yw+ESWkxXfOYxEvqcGviyeBwBkBcV618bfjbc/FieOzljaO0tBiFHPXHQ8V549vFOnmsidemaAM8TqwyEFW9O1u80qdbyxPlOGBDLxWcMjAU9qlj3NhTyO9AHrPgHxLfazMuoXUu6bIB5617tol4bvQ43kzkJzivmf4VXc63o4+QHFfRvgKeae0EJj+UqO1AHqvwrjVrlAo6deK918GlW2hW7eleFfDp2tL0suCAwyBXunw+ufPZSqDAoA7ay83yS+zp0NLJrEcG5XmVSvbNSGVVtGZeBXA+M7+7iu2S0Y5zyaAOxk8aadHGyfacsFP3eawLjxJcXKvIrnjkfSuH1LVby0tGlV8HHOaZo3jBWs2SaVc9/mFAHYprLXEDvLIoCcHJ5qGy1eSW5J8zgfdHrXO2Gq28195soBiLc5PU1uaJb2z3Pmlwu1sKPrQB22kJHewB5IgFI+YkVpL4a0+5QLHAoPYkdaraFDBLGkXmADPrXW29jEY1SEg4HWgDCj0e0to+Y1G30FYmt3S275GQvqK6/U9Nj8plWYA+ma4rxPHuhNskihs9c0AVF1NFG8SDHfJqKfV5ROrI/yn0NY96IGmFn9sjj2jLFs81Uu9Vs7W3Mf2hWVR94Hg0AdgnjCOwQK8vJ96ZN8SLbLKZeVHrXlOoeMbGO9H2m+zk4Chq2vC+mjxXN5lo7bf4jigD0Lw/wCNoNYcpHLluldLb208qBgcgiuCi8BXnh//AImNnISQfmGe1el+GgZtHjnk6+XQByviuydYW8xRt5zXlniIx+e5247/AI16z4/u1W1dOnHJryLXJEeOSRPmy2aAOI8csLaHzB/GCD9K+Y/jxd3NvpNziPIZyEz35r6R+I16n2Vo9w3BDXy38fNaNxZLZBhlXP8AOgDxJpS8hYW+xs9+9MFzIMhrU/gOKuqqhyzJ9M0yaWSJCQwoA5rZIBnoB3qaFHCbgxyfelDEQ7cZqzCY0tguzOetAG78MtTnt9UWGRsAt0r6f+G2r25sgkoGdgxmvk3S75LS9iuIl27WHNfQfwr8Qx38ETPIPujBBoA948G3DwMskchBd8mvaPh/qYgCbJ+SPmFeDeFJrmaWNOiAZBHevUvBupfYtrMTn3oA94tZEudHbP8AcJrkfssN9emK4XLBuc1s+EdYiurBRK3UcDNVXitV1eV8gUAc18TfBzT6FK2mYSQL8pFfPWrXusaDqYspNRcOz8gnjrX1bq8KHTWnBLfLnAHWvDfiV4KsddledMwzjO07e9AGToOs65cKApVwTgZY13Om/wDCUwpG00YVpD8uGPFeR6NB4t8IagUu2E9ruGGHJHNen6R47S8u7KCJmwHG4MOnFAHdXw8f+D9N0vWNTtwINVRmtCsmSwVtpJHbmuh0nxd46ttMbUWtH8oHG7Oazdd1a71Oz02xu7/7SlsMW8ZP+qBOSB6DNdJZa7piaMdNfVlHHMQPGaAMe58Y+L7uz+0rbSNuOMrWC2r61rFw9oYXEqKWO7sK7OPWNI0/TxHfOSAcggA1yl7qtkmul4Ljy7ec7HkIGQDQBzeoT6rc3T2yptkVSST6VyPiDVLmGA/abvYqk55610niu/Wz1LzdMuDL2YjvXGaj4Vvte1FpdQ3iJnLFA2KAM3wrpsvijxLDMpdre3PLE/eOc19I/CfS7TSbLCwruY+leUeEtFsNJdLXT4SBkZya9j8DKIoAzN6UAdRq3lyWbQIgGU+birPh64jtdESOQcBMA1mapqgmmW2UAYXnHepJLmWLSUO3Cq2T9MUAch8StZEIaIuAGOOTXn0zK8L/ACcHua0/iBrCX+t+WrkqTWBqN4kFkxaTaAOCaAPLvjBq1razSRRkgqDXyJ8VtdGo688Ak+VGPQ19DfHjxJbxC6mNyMopAyevNfKutXwvtVmuRFwz8mgCq24844qC+ZMDYvarDXCIQFTcO/tVa9D3CYjI+lAGBtVwdr9KntyRb4ZuRVRYiFLK55ogmZUMbGgC2gLSogfivTPhB4nNpcfZjP8AOCNqnoRXlsbMCGPbpWjoutNpF9HdxkjHBOaAPtH4fa/PdLEv2hQMcn+7XqWlakzeVBBchyo5b1r5k+Efj61ksYyJcsV55r3XwJffaUWRcAlARzQB7J4T8TTWzANMcKOavReJbo3bXBVQrNjdmuA0TVFhl2/am3qfmBXiti+8UwW5CxsnTknHWgD0m01aG6s/L8xckc5P9K4bxfpLCSSdhnJ44pPDXiNLqUEOCQfmxwBXR3Vtb6rYsSB7UAeZyaZvkOYSwz1qzpegWvnCRIirA8HHSt2TS3t7grtJGelammaXbysuV2n3FAFPS7fUPPDNM7Afdz2rasbPUAG8pWIbkjFb2k6DAEDGHj6V0em6dZwJkQqTigDhhpN1OpSeOTJ9SabeaDB9jZXizkY55r0W40y3MfmiJRmqcmhwSxkGMZznpQB5fP4YABMURDDkHFVLjSWX74wcct3r0nVrKztrd5FjGVWuH1WY3F1sUYHSgCjpNtAl/GiL0OGYd69L0R4rCwO8HOOK4/w/pcdkDPMmecjNXtS8UR21q8Dy7QFwCO1AFxvF8S+JhDMxC8AGt/xN4gEOjlI5BtKk5H0rxKfxZH/a4VrncyygZP1rq9e8SLc6WkaT5zGM4PtQBjGeC7umM3LbsA+tcp8U9eXS9PMUTbSRzzWje38FvCWWXaw+6c1418efH9rpdpNJPcmRtp4B6UAeG/tB+OJ5rySzilPzHsa8kF27jJYZ7irvjLXzruqS3SEkeYcAt71lEhwWXrjBGKALSSSMcqBj60uCBvVe/rVRCVHLYqaO4CRgbt2M5oA58yMeKQjcevekyXGQQPrSoCRuwT/WgCRZScZ4FIrMHLAd+Ku6T4d1fWiEsLCWXLYAVCcV6z8LP2aGv4v7b8cytDbj7kCn5n9vUUAYHwb8RTJqEdjMjbEIOccGvp/wF4jEOnefHMCcYAzXmHizwn4b8G+GpdYttMW1tYR+4QkeZIcf3qqfCv4nWV1cG3UOqHhY3fJFAH0NpXiK6A+0Iu9j/DWdqnim7vL42qQumX5Oay9I1GXyRJGSdy546iszX/F0GmTlJLcFnb7xPNAHqvgXXfs8a20z5JPDE16f4b1iF4xA82MDNfMPhvxNKxjkV2Us2cZ6DNep+G/F0kLxTSTYOANp5zQB6wsdvqDFkGcHr61cs9LWZgIzyDXJaZ4ojUHypANx6V1Ph/W4ZIgyOCSeeaAOs05JY7byt3IAqd71rIlpOnTNYNr4iRLlbfflmJwPX0pdf8QwW0AS4kAkj5IPegDpYNche286VcpnA9qWXVLZ4v3cqkY6ZrhZviHpzpDbJMoCnEgXmmL4ltJh5tlKWKkkjOKAOlu51ud6Sr+7PXmsn/hFYpL1Z85XvWZL4lDfO0pXP8NaOleJ4PIZJ5ABjgk0AT6ukelWm1VUgjrXnXjLxPaRK9tuBJGcV0PjrxKfsW2CbIxknNeM+Otaw5uVm+ZhxzQBm32sXy6hJNNMVBPyknvXZaBrN1dW0azXnmfLkZPavGtb16+uoTG8mG6jnrXW6JeXunaLFeC558vHLUAbnxB8Tx6YpcSAAKcDPfFfNvxB+JZ0/WxPqGnLeQM3zROAQ3tzXefEnxhJqubNJSSp+8teSeP9HuLy0QK25lbOPXigDem+HXwW+MNiJvBMraNq+zLW1zNuWRvbaoxXl/jT4PfEPwHM/wDbegzJAjH/AEkAbWHr1qA3V5otwt1CTDJG37vy+MH1r3j4NftA6F4ot08DfFyNJo5FCQ3bjJHbB6D0oA+ZVmicHeTjsRQQ0YEi8jHIPavpr42/sZ21xZv4r8ATK9nIN8flkHPfseK+bvEHhPX/AApdNZ6rZyIVbBZgcUAUfDng/wAQ+KLr7PpmnSOScBwp2r9TXsXw5/ZXtnaO+8W6gXbr5Nv8w/MV6n4P+GGg+HrZcqFx08s4z9cV1dm7WiFdOtY1Cj5nCjpQBn+F/hf4Y8MaeTZabFGqj5S6DcfxqrqKyWtvcapOR9mtUZlQDHIB/wAK620tZL2xXzXaQsf4+cVR+I/hhl+G+qtF98WzNkegUk0AfK3xR+Lmr/EGZrNwYrWCQlbdemOmaxvA813Z6t9qgkYfIS7elY0jEXMmJOhxXUeDLMTQTSuR9ztQB7d4C8dRXljFatNyAQXY9ab47lvPMivIlDKrZz17VwnhWK4S2R4CdqsTx9a7qW4W/wBA+zyXA8zbwB1oAseGPEk97Zq0iqCrYBVccV3/AIa1q4mEYkbdsYAH2rxHTtXvdMmazQ52nkdq9G8HeI7ZLdRNckHGVGetAHt+l3ULWzziUZVB3rovC+tMdOJjkywGSAa8o0XxLDLYMschJbjIrR0TW76yDrHM2GGG+lAHsDa6kAiuoZGDqfmJXpVu61aHXrfN1hiAdrgYzXAWeqXk2hJdiYHK5wRVzQ9Rvgglmf5FPOPegBl5Jp1jqExEpV+oBPaqXhbxBfDVsSSHywT1PWm+LtOk1a9F9FMsSqcOR3FVLu4t9MtlMHJJ2qy/xUAdhrGpAqkqv1Pb3rIufExtrvyBMwUDpmnaLcLeWqzXQyYuWWuP8YeIYG1OQwgDJPAoA1NS8WvNHO0t1lVHTNeaeL9ea5lfLELj5Klu9bIMk0zEREdN3U1yHjzxHDZEbXABX5M+lADbXURcagkch3kHvWv4j8TTQWK6TBPhiuMA9K4zQdRMjtqIb5uNue9dBY2Z1KQajfxlXY/KpFAFCy0+6lfMj7gSSa57x1D9m1K3T+Asd35V6PHpMNjbiQKTuHHFcT4/0/zrqKQDkGgDgviL4YjGn/2hCB0zwK4J7maJlELEPuHzZ6CvbNW0pNS8LyRuMsFOK8V1OMW93IqFSA+OnNAH0l+yT+0vBpqt4A8f33m2DriGSU/dP1OfavRPiv8ACjwJ4xtWuILS3uYpzmKQLmvivT1uJZEtrJ2aSRwF57n0r9B/AngBbL4M6HpU+4XP9nxyyO3XJQHFAHm1np/2o747rIHUKOK29K0iDy3Mj8YGMVBBb/ZGJhA2ofm962bG1S7iWaKUcj7o7UAXbCzhS3jKIWUf3hzWje+G4tX8P3diwJNxavGFPuMVJpNmZLVV2/d9q29Os2C+Yx4xgCgD82vHWhNoPjG/0mSEp5d3Iqg8cbiBWt8Pp1E8lk/OUwPevQv22PhxceE/iH/wkMduVtr0dVHAbgfzrynwrqAsdTinLjAbDUAew/D60V1+zvGMEdDWtrvh+703N9ZIWUDlRWd4FnH20CJgQwyK9JtLSK6tfJnQHdx0oA8Zv5Hd2aL5WYkye1T6d4nuFEdtG4yTtj55Arp/HXgOS1eS5sEx3YetcJdaZcxXkd7brtZPvLQB6n4T8Vpa2CWktx+8Zuc/Wux0vxEzMQZwQB2NfP0d9qK3LXLXW1V525/Suw8DeNY/OzesPl6bjwaAPfvDfipI7ZNP1D5FB4PqK7DRtSt5rJTHHlTzj1968K0jxbaTXLXlxwWPyoprsdD+IMNnEYWlODyB6e1AHeX8jGZ7VVDrIuRz93HNYN9NbJew2xl/dRqC5/2qzLnx/DdsY7efB2nkVz8viu2DPHe3agMTjJ6UAdfN4mOmW08cUpHmDOTXD6trsM1zPJeS7Nq8HPXis7xF48tbu2S0sp97gYHPU1wHi/xXqF3dEbyuwYZc9aANfxB4sjhQotx8u75RmuS1XV7nxVqkccfMajAX2o0/7Trl1xGWwAAPQ12fgn4bPbT/AG+6i5PzAe9AD/BGgvpsW+5tgxYcBu1dPp1gbicSMgyOgI4q5b6SWZU8vG3tjrW5peiKsYZoxjPQigDLnswI9ky9BXAeMrIS3G/HCtXqWvw+XkKP4a4HxPZl/l2jGeT3oA52UwxaLMMceUf5V4DrwhfU3U5GWPSvcPGeow6J4Zldz87gqAfyrwbUrpZZndWywbpjpQB3n7Nngi48d/FrR9Kii3Rx3iSTA/3QwzX6RX+lWlrYQ20SgLFEEUDsAMV8mf8ABOv4YzyyXvxDu4CoX91bsR1OAcivrOdmaQRvkjHNAH//2Q==;" parent="1" vertex="1">
          <mxGeometry x="270" y="290" width="114" height="114" as="geometry" />
        </mxCell>
        <mxCell id="cLg7_qIMpq1HG2zk-ft2-3" value="" style="shape=image;verticalLabelPosition=bottom;labelBackgroundColor=default;verticalAlign=top;aspect=fixed;imageAspect=0;image=data:image/jpeg,/9j/4AAQSkZJRgABAQAAAQABAAD/2wBDAAIBAQEBAQIBAQECAgICAgQDAgICAgUEBAMEBgUGBgYFBgYGBwkIBgcJBwYGCAsICQoKCgoKBggLDAsKDAkKCgr/2wBDAQICAgICAgUDAwUKBwYHCgoKCgoKCgoKCgoKCgoKCgoKCgoKCgoKCgoKCgoKCgoKCgoKCgoKCgoKCgoKCgoKCgr/wAARCADgAOADASIAAhEBAxEB/8QAHwAAAQUBAQEBAQEAAAAAAAAAAAECAwQFBgcICQoL/8QAtRAAAgEDAwIEAwUFBAQAAAF9AQIDAAQRBRIhMUEGE1FhByJxFDKBkaEII0KxwRVS0fAkM2JyggkKFhcYGRolJicoKSo0NTY3ODk6Q0RFRkdISUpTVFVWV1hZWmNkZWZnaGlqc3R1dnd4eXqDhIWGh4iJipKTlJWWl5iZmqKjpKWmp6ipqrKztLW2t7i5usLDxMXGx8jJytLT1NXW19jZ2uHi4+Tl5ufo6erx8vP09fb3+Pn6/8QAHwEAAwEBAQEBAQEBAQAAAAAAAAECAwQFBgcICQoL/8QAtREAAgECBAQDBAcFBAQAAQJ3AAECAxEEBSExBhJBUQdhcRMiMoEIFEKRobHBCSMzUvAVYnLRChYkNOEl8RcYGRomJygpKjU2Nzg5OkNERUZHSElKU1RVVldYWVpjZGVmZ2hpanN0dXZ3eHl6goOEhYaHiImKkpOUlZaXmJmaoqOkpaanqKmqsrO0tba3uLm6wsPExcbHyMnK0tPU1dbX2Nna4uPk5ebn6Onq8vP09fb3+Pn6/9oADAMBAAIRAxEAPwD8PYy23AHFWbUbrlAjfhUCcJ8p4qxbBVuEyenFAHe+BkjW8QOOuK9Z0qHFqIo5AMivH/B1ywvIgvQEc17F4VB1KSMgDCjFAHbfD/RUiCseSWr1Xw3p6pIGZOdvpXEeCbFgi7gB+Feo+HLT5VYqDxzxQB0nhuExyIm35MV3mgQKqqwHGK5bw9bjCs0Yx6V2WlttCxrGMdqAOg0xPkGa17LIGQO9ZunhCBxkite0QbAQKALULbmO/mtLSkjKk7f4xWcu0OrKM+orU00jysKdvzZoA0kKAjFTvNIxC1XgfJPyZI71YGWUHABoAe4BQAkZqre5AG0j3qVpizAEdKrXTkSH3FAFO67896py4D5YZGKtzKC23d1POaq3TOGKhRjHUUAYuqQBV3xnHNYN1CSxLjNdBqBZowh55rIuUVRkKT7UAcnrtlHJv6e1cD4r00zRkMOgNekaxCCWbkfhXD+I0Uu/JxyKAPH/ABrZZjEZXHOBXOJarbrvHJA+au78X2Uci/N61yGqRJBbb1HUkH3oA8v+LrebYTEDhs7K+fPGEEUTho14Jr6H+KbobF1JAJB2Z7V88+L3y5jC5GeDQBg7WVwxUEU6JSXLI34UyZhF8qsTUkKsWDY4xQBnR7NpXGAB3qVGQMrYzgZzVdkLKeeKmiUMQo9KAOo8Iah/psQJwvc17n8M1a4XKHIOCDXz54dLpMqq33fSve/hReRf2fEpHzZ7UAe3eFYMRrHj8RXpHh6LyIVwcgjrXnPgZA7qWbIr03SUHyKo4NAHW+H3MgCL0rqtNLpgdgaxPDNjHHGARyRW9FC8QznHPagDesXIwV61s2k5K7ea56wYg8k9PWt/T0kZVkT0oAv24d1461p2JHlBT171Rt7ZyBk4BPJrSgg8pAQxagCzCRnBk2+3rVyGRBhd+aoo+RgnHtUsTN5Y4zzQBLMSjnB47VTmaV5ParO4znbjGKXym2lFUZPAoAzpI3Y7qrSRyMSc/Wtaa32Jlx+VVZ48LlBQBgX9tIoBBrLvF2qMLmt/VgfL2qBWFebsbdmQBQBh39t5yszdBXAeMYPLd3iXjcelejXbKImB6k9K4nxfbMySmNccZ4oA8s8RRNOg3p3rjddhV7PavYmu81kOI2RxkgVxmt2wWN8DgA0AeF/F7UVt3NuzcjqPavCvE8ySXr+WwJZ+B7V7F8dEc3EssbdBivENVV2nzuwVHBNAFOVW3E7eafDO5YoV420yZpA2G698CpLeIhvNz26UAZxkjKFVXpSx8HgYpirhd/qae0ig5BHSgDX8KAPfhck5OOa9s+GMrW7Rxk8ZrxDwpOv9pRnGPnHNe1+B18gwz9mNAH0D8OpUmKrnoa9Y8PIhkUN0WvEvhXqaGUFzwG9a9j8O38ZBcHjsaAPSNDCgBh0xW7b4kjC7gcmuT0zXYYYQFA6Vr/29FbWgdnXnoM80AdVa2fPzDHHWt3TRHCViDbsjgCvNrT4kRRzm3LFcetdFpfjdJjvdlZf+WbBuR70Ad7aAj5GOfY1fhR3TKrwK5fTfEUNwF2yjYPU8mui03VbdlwW4IoAndiCBt7U9WkRcAc5pi+U77i2eashUddoNADYgVk68nmrKxkuCtVodsRzM3rilbU44YwTJ/EcZoAmuGVk2sOg5rJvr2G3B3OOOvtVPxB4ts7C1kuLiZVWM7tzGuW1bxDcatby3mlQT3SRJulNvHuCjGc8UAaWqa/bYYCVcfWsO416IpuWQEEcYNcHqvxLs5iYomnkdGIKwxFiPqBWS/wATvCWngSaiNVBBwQunyH+VAHe3WpQtGziQH6GuX1/UkdJBnqKrWfxl+G9yPJjnu4xjnzrB1/mKg1jxj4G1K3JtNYgjJ7yuF/nQBwfii7FvKSD94YrlNTmVrSQMckqelbHj+aB5DcW10ssY+68MoIrnBJv00PtGD0IoA8F+NcbxpKwznd/WvC9Zcic+ZxX0F8c4mjZmYgZBHFeAa9G32whzwKAKJxu2lqdb+aSxB4A6Uzf8+1sVMAjLtUbSe+aAM0BjHhUz70gVmG1lU/QU3ewI5OKkLkAfIBnpigC/4aKLeorHGGHHrX0D4f0vZokFxHEVHlZyBXzraSy28yTxRsxUg7cda9Q0n4+XNppUeljQCxSPbuy1AHr3hvxtbeHSIJ5SZQciOLlm+grvtE+KvjzUo0Twp4UiYcBxqErRH6jAPNeQaTpt1bWVtNNBvuJCJJXb0JyB+Rr1n4d6qtvbpvb+LoRzQB31lbfF7xFBGx8RRaM5HK26LMP/AB4Cuo0vwL411G2W18QePWuyCMlLZYyR6fKaytI8Uxq6qCAAO4zXX+G9binkQO4Ubgc57UAWfDP7MPhDX/EdnPetrcr/AGiNpYrXVpR5qhgSAAeOM1+jvgvwx+wx4f8AgjfeH9d+D2qaPNPaGETX1yZp14BDq5jypzXgP7Avj74J+AfjbpviT4vXVqdMjjkVzdDcqsVwpPB6Hmvo79vf9pv9mPxPo9rpfwc1rStSkyTdT6cjDgqflO4DvQB+aPibTfHfhzXb6Pwl4tiMAnk+yreRu+xdx2g8jPFWPCXxs+I3hKdLX4gW0F9bs3N7p8RRYx/tBjmug+INhDqEklzaPtVslSO9cv4L0+51/wAQXHhi8fdHdabcKGYd9mB/OgD2C0+M3guLSl1q/wBdt4rcpu8xpBgCs9f2sPgW9tPfQ/EnTDDatiZzccLxXyR8Ov2W/AfiHxnfW/ibxNqN6kV/LGbUXDKgIYgj5WFe8eHf2P8A4H6Lp72Nl4YcRTr+83XTtn35NAHcWn7W/wACtYl2aZ8StJlOOPLu1Of1rlPEfxx8T/EPVZdD+GN9GtrHjzNVGCFPcKOjdK8u+Lv7G/wKsbhb2w0i8t59p3C3v5EGO/Q1W/Z81TTvDHwbj0bQLhmK65eoryMWfasu0AseeMUAep6D4C0SPxFb69458QXmrXkMofIuWiQn0KKdpFfqz+xH4r0n9prwddeGdQ8GeF7SGCzFvK0OgW6ySLsxnKqDnHevyi8KW1xOVnvGZyTnJr3/AOAHx68X/CC5nl8MeJrrTQ8Ry9tKVJ6UAb/7d37OfhH4G/HG+8J+GLS0aEQRT+bbxKhBkXcRx6Zr551zQLeBTJLGnH+zXpvxd+MWr/EPxbceJPE+qPd3MiKr3M7ZZgBxk15P4t8SqxKrIMHpg0AYmpaZpFwm2e2jbPcivPvGvw98A6rE5v8Aw5aynPV05Fb+o+IpY5nOeO3Nc94j1VZbNm3gHr1oA8s8W+FItAYp4bvZLVEBIt0PysPTmsPTfjj4L0mxFprmvW8F0nEtvJIAyn3Fd0NOk8QXwXccIc5254Fcvafsn+Cfije6x4n1ezcOdTkTMchXKjHTFAHl3xk8deF/E8Sy6Hq0M3OSEcGvEtene4u2CpxnvX0n8V/2ctA8E+GTa6DZbPL+ZXc7mOM9+tYvwt/Zw8M+OfCUviG9kkEkbOD8+ORn/CgD51bazNIY8AHsacse8ZU4OehNdj8W/hufA2rbLQ7oHYhTXHoFLA9DjmgDOj85iFMa/nzXpnwm+Ei6/ENV1m2fyX+4GXArgvDulHXtcs9Ni+9PKF4Nfe3gf4L2Wn+ELeIRDEdsCQR3xmgD5g1v4b6HYeO7Sw0+D5MAspOQeK9y0D4Q+Fr/AMMgHQLfc0OWcRLu/lmvOdY0meH4vzQTyfLCRswOMc19FfDa2huNMWIgYCYNAHn2m+GINY8IW+qwQlW3FSPTBIH8qk0+xmsV3KWUKcDmuz8N6ONNvNX8MzLsVbjdYg9GTaMkfiTWPfIvnta9MNjHvQBHF4iltJlikuyox61qW3xRtNOVUeZ5Co58s81Ba+BYdXZXdmB9QK6fw38KNMhlSVIt/ruWgDCf9qHWtHkEOjaEsv8AtXDMCPyNdd8Pfjb8Q/F9zsbRItjckpI3+FdZ4d+Enh+eRZLzR4SM9SorudC8H6BocYSzsYUIyfkQf0oA5S38W+J5gF1LRHRVOMgEjH5VieKPHVv4Khk8VQPJbtDbum8RliGPt6cV6fqv2OK2LsmQE5T1rxP46NJe2sWhW1v81zKGkQfwx8g0AX/hdJPHqEF1OqrNdym6d1/i8z5s8euelfQNlfsLFQD25+lfOfw6uXGrRRltywxoiMPQDGK9z0y/3WgycfJxQBzfxOvkN0s8yBoh8pUjnFeP6D4cm8DfFiXwvBH5ek3Y+026543sNzkfia9N8f3C3k4gkAIzjDHnFee+N9O1OKay8TadEZLiwbaeeTGT836CgD2jTZ5zbrBY2SKEGFZh9+qeuHx0qPJpMe3aOcZzn2qt8KvGMXiPS082Ld2/3T3Fd7HblAXWPKsMjIoA8C8dr8ddxvNMuJOB0YcH9K4dPE/xsmn2azbEqhwfl6/pX1ZqVta3EJS4jG3bzgYrl9V8Iac4Mo24I6UAfO2qePtWikFpcae+9uGIB/wp9q97q1uZJwygjoRXpPifwZokUr3L2qEjuSBXH6zrXhXRVKyX8cYUckNnH4CgBNF0+PS9GvNUZABDbSsWJ7BTXXfC/RIYfAFtqS4K3qC4BA67gDXn2k65qvjiddC0DS/MsZGK3lzKp2MndfXkZr2G2h07R/D9vo+nRCOG2t1jRE+4oAxxQB5L8aNIjv8ATZwy8GM/nXAfAGC6u7S+8JQDA80nA6jr/jXqPxIYT6fIiHcADz61wn7N5hsfiJc2s45kmGfpxQB5r+2R8Pm0TwtDexx4MMpy2OucCvmQKEjbc/JPFfd3/BRPSrOx+Ej3kBBMlygX/vsV8HMroNzAkE5oAv8Aw2vbfS/G+malMQFS7XIP+fev00sJ7KDwMl75gCvaA/pX5Z6dciC+hmAz5cqsM98Gvv7wn8RJfFXwT0q4hY+ZdWoVsfw9aAPHtbvEv/ijc3Cc5kABHtXtPgPUTYWyMHIGBnHWvDdMtXh8e3JmGSHzzXqWmak9vBEUPzc557UAdj4w02bxQq3+kambW6jT91LGAQf9k5rnbLSfiVaO9zrPhe3mVWGJbe4Ls49SoHBrb8LzvfSqSCE9Aeteq+ELaIwhSgySO1AHj1r8XtM0S4+w6x4X1qMgcmLR5nH5ha6TR/j94CtSizWWspkd9InH/ste7aboNtLEJGgUkjuK07Tw5ZhlK2i59cUAeU+Ffj54G1W4WztzfAk4US2Eq/qVr1PQdZ8M6lpU9+NMu0lSPMcJcbpDjqOK14dFjU7BaqPX5ak/scqG3pj0wKAOAutW1PV4t0egXNo6yEHz2Ujb26GvP/HNn9muJ9V1NhLcFSQx7D0Fe0eJo7PS7F5NoDBOlfP3xD8QLeX72of7pwuDQBL8PCJdVyp4Lda9z0208rTkZTklP6V4x8KbBZdQXee/pXulqqpp4QR4ATr+FAHmfjdpINS8xjwpqXQkg1C0bfGp3cHIzxUXxAgkaeV1z1OM1m+C9bijkFrK+G7DPWgDobDwRcWw36LM9u5fcRGTjr6D1ravofjjdWq23h3xno1oy9De6U0n8mFbHhdklVZEb5iPmArrbTRIrmASKuGzyw70AeU3Pgf9qe8QPN8SPCTR99mjTJn8mNTRfCL4s3kGNa8bW4yOWs1dfyzXrsegPABIhwRViPTpEHJDe1AHz1rX7K3iDV7wXV/8VtdMecvb70KN7crmkh/Zg+H+jTLqT6Klxdx9biYncT64Bx+le+3lhlt/3QPasXWbaEglUAOOtAHkd1o1tpKmG0t0jU9Qq46Vl3+peRAYWbg11vi+BgW2qPqK8+1+XCkA9DzQBzHja7P2aWNR1TiuG+E0k9r8U5IWcBpoG2EeuQK6rxNdNKrxZz8v6VxHg+/i0f4h2V5O3zNJtJPbnNAGX+358QJLrwXpvhmacFpJGZgf9lhXyFLK/wDC+RjGK97/AG79QMni3S7ZlwrQSMAf94V4CMupbIAyeaAKihlYP0Oflr7I/ZquZLn4QWdzO2UhgHHpxXxu05aYbk45xX1P+zJ4ysYfhS+nNLkx5BX8BQA2CQXXjS+mTjEuB+VdhBdupjjz0FcBpt35nia4lj6NLuNdvYmaZkZV7ZzQB6H4GuRHsibnHWvY/BUiuqgJ1IrwzwLcpNfrA78jHFe9fD2x3IjAZGRQB6Ho0YcIpHauisbTKZCd8dKzdBtY+AR2rpbCPcwXb0oAWCwRhucdueKramhjRo1X6cVuiFVXO2svxE0dnavPkZC7qAPI/jF4ki0uyaFX3SuMba8LudIuZr431ypLStwvpXoHjC+l8R+ILi7k5SNiFB9q56SWO41KON32hW5HrQB23wf8INvSZ4ycAHpXr8Oik2gQwnpjpWP8GrPTDaQ3EpXywBu969T/ALO0m4tGeyuVGBnBoA8M+IXhMlHlWP615df6FNbXwubLIkQ5AHrXvvxBmtLdJY5nHOcGvKb24tIr3nbtJ4Y0AaXwv8ZBLtdM1oFJG4DGvcfD0UU1ssiMCO2K8BbTIJoftdouHByHBr1n4NeJ2v8AS0tZ2y6Ejn2oA77+zwwJz2pWsY0U/LzirkQVl3e1OkEL5baRQBg3dtlWDJXL69Z4OAK7e7C7SFHFc54ghSRcIvSgDyzxpbiFH47HmvKtdlUXDxt3New+PrdRbyOc8DmvGNfb/iYEqMjdzmgDl/FVuiQFwuCe9ecBI4vF9vLJMAFlzkmvUfGOPseY1zle4rx/V7fzfFFvD5pBMvT1oA8//beexvfFGlXdvOH2WjKce7D/AArwfzBkgjANfRf7angEaXoWn+JYn+4nlkE5znJr5hbUXdc5AOelAFkiMsCvJB5A719FfsraRb3Hg+62jcZJHC59eK+cI5C7YjXDZ4r239k/4iWOkXc3hu+lCLJkxlj/ABd6AOkAXSfFtxYyNtZZ8Ee1ekWGI7NZYnDfLnj0rzfxbJbSfEOeaNSTIucg8ZzXofhtFXSRI3Ty8daAOr+GMP2jVVlbu3Svo7wEVt9iY4NfOvw2V4LtJlGcv0/GvoTwTMQIy46gGgD0/RpEVg+eK6KxuFQhs4rkNLuPlHpWxa6jGMBqAOlS5WRThhWD4vuvOsXhU8lSKf8A2mijg/jWLq+ofOQZM+1AHkj6Umm65PaXyEJLJlXPStPW/hXomoaONR0mcC4AyCK29c0+0vXMkqfe6EVW022msYzBHKSp6AmgDl/BvjzVPB17/YmthlVWwrjODXeQ/F91iJiuMr2w1c34h8DL4gjyybZB0YVzE/ws8X2shFrdMYye+eP1oA0/G3xG1LX7h4LElm9qX4b/AA61TxVdC51u4ZYwc7cmrXgz4Y3thILjURuJOeld/ZKmkWpit22HvjvQBk+IPDNh4YtzFbybxjAGea0PhZFcaXD9om43OSB+NQXkCahdCa4k3EdM1csp/I2KrY29qAPTrDURLEJC/b1qw2ockbuK47SdckFuAr85q62vKAfNbrQBrXN+CWw3GKx9TudxwhBqrJrC+YwV8gjvVe6vPNTCtz60Acp4+bFtJuHUV4xq9sVund14zXsnjNXktGQ8jJryzXLcCU4556UAcV4ynY2LptAKrxxXjUmoBvGdo7Q5Kz9O2K9l8ZiQ28ykKGWI9uvFfO3xM8Q6n4ZjfWrB181CQinsfWgCz+3Z4wtL3QbHwpp0qvIZMygH7vBr5UbSZw+WjKn6V1PiXxNrfi3UZdV1q9knmZv4jnFZsjErhkGfX0oAyjKylSMbgOuKm0/UbrT7kXVpM0cgOQyHGKqsyKcA8UqsoOSwoA9Q8AeK9S1mQXGq3rPInRs8kV7x4Kvnu9FRTySmfxr5i+G155WpFSPlbFfRXw3up57ZBGvyFetAHrvw0jaO+jSZBtPTFe8+DIwwRVJ5NeD/AA93Jeh0bdtr3LwDeNNJGAOlAHodlFIkWAOAOtE2pR2zgSTAcZ61NA3+il2OOK4v4hX0ibUtXIfYeBQBv3njnT7bKy3HOOAO9YVx4juLuZ5oidp6DNcTeXNxHF5txneBwTVbRfGUi7rea9UYPBJoA7eDXZZnKyMAUH8Xeoo9XuJboOx4Bx8vFc0viGCe9jleQEDhiD1rd0lLW4n81XG3HTNAHbaFI88YlkCsPTFbtvaRXaAvFge1Y3htbQoqblHA712GnwWhjUI6n15oAzJbSG2TOMgelc9rs0sIaVFG3Pc12Op29jFCUaVeR/erhvFElqYmtYp/4uoNAFAaqEBmlOMelQzatN58ciyYVupzxWPqOoWSSfZ5JzhR1zWZqPijTrW3KLLuHuaAOuu/Gn9lyLbpcAk46c1VuPifcYdF5K+1eU6j8RLCG+jtjIWd2+QKfeu5+HWiHxoTNcQNGEP8XegDq/B/jpdam+zTvtf+6RXeWemrNGsrdCOK4668BxWMYv7IKjRddo5Nd5oSiXRo5FbJVKAOW8ZWiQWruBkdMV5N4gUJIzKvOelep/EG7ZLSQMce1eUay8ksTSHnkmgDgPiRKI4/tgTA2nI9a+XP2hFK6WVD482XJUHkc19I/E/VPKt/KkyAEJ5r5Q+NfiQXl0bUtnL5H4GgDy02cqZVLgjJ6U2SyIBYzkEfrV59iyb9o59arahuKjaoGT2oA53y5ihPmcDtU1vAZIeRk0iTAW7KU5qxZhxbZbHPQA0Aafge4ew1Vcg4Y96+lPhdqkKW8bO4AZQTXzBDeS2k4lj46Yr2j4R+JPOgi82QHChSM0AfSPgy4jgmNwkpBYgnntXs/gHVvLSGRbhdx7V4B4Uvph5Ua4dc4JA616v4Kv1tkWV4zkfdoA9/0WY3dgRLICSOBXMapbxz6y6XigjdxnsKn8D+I0uIV3lemDk1Nrf2Y6puGCdnY980AZPirwrp93ozfZnAkKkCvmnxouv+F9UlW41SZSZiEjIGMZ619YNEk+mtsOCF7DNeSfEHRbW+uJGe2j3hWVWdAeowetAHn/h/XdWuYEEWol/m5Y4yBXoWk6Z4hWKN01EYOMkNXkkHgrW/DGpyXFhdtJC4GI2PTnNeg+HfGk07WttJG8W1gJM0Aeg3dj4v8P6TZ6zHqQkiupSm1XBZSCByByK6nS7Tx2dFk1K3v1IjHKGQAn6c1kX99p02m2kcFxkuRkhuB9RXT6brtgll9j+zElEwW3CgDKjTxlqGmm9a+IYNgoTnj8658x6/c6m1je3Qj+UtubPauwTxBHp1kVjgXI5wa5/WdU0oXSavIyk7x5kY9O9AHIapbXUl69rNeDBzhhnnFcd4uvRYIReTsQh4UHrXc+OdXsLu8SXRLccDgDscVxr+HLnWrxp9TXg9FoAw/APh641/X01q9t9sUZxEo789f0r6S+F9vBZ26wQpgseeK8q8O2UdmI4reMBYzjGK9b8CKIY1lHUCgDrNVDrbPCyjGOvrU2n3RstFVVYDmsfUtc+0Xf2MNycZqe9b7LpgZpc7TkigDififr4EnkFzluCBXD3UoNqXU7uOlXfG+qyalrG+NQV3Vz2v6rHplo0kj7crQB5L8adcAuLiPoEU4+lfI3xA1I32vTP0CsQM1738f/HNtb/aVWYbmX1r5p1K8+13kk8kvDNmgCNzvGC3OO1Q3W5IQzHNSLInnf6wfdpk6rIAGbPPagDASVShJ71NbDapkJ69BVRFGQAx+lPjkMLFs5FAFpgzzAHoK7D4Z+If7P1Q27yfK2NnPeuIS5cuzjnd+lTWd/LY3PnxsdykYoA+xvhf4iaSKJHuR82CST0r2XT760tVWC2vfMK4+YYr5E+DXxFQwIkpJIADZ7V9B+AdabUDEF/iXOSelAHuPhXXZrdkQTDGMmtS48S3jXZuFb5QeMrXnumaotvIqPcBmz24xW3qHjGC1gWJSjsRyCOaAPQ9I8QQTQfPLyw5xWD4z0dZ83UIyMZNc74a8VRXcwiWVVOeQe1dnb3VvqNm0RdTgcmgDzWXTXmuSfLGOnNWbPQ5JJcNbgj6V0l9oCR3RZEyp5yBVq1slgIzDgdiaAM3S/DlwZhmUjHQV0Gn+GdQlkE8SOWUdQTW9oWiq6CVYA3ua6HTYRAMAKOOaAOPTw7q6r++VselMuPDzvAVaDPPOa757VZk3Zxntion0iFkw44oA82m8KkgmO2HTrisy60fyCQ4AIr0rUYraGJ4owQcVwOriSS/MLA8mgChollJLeYjTIB5r0TS7kaZp5O4BlH51z3hzT0s0e4eLHoTUeteJFtoXR1O1TjcO9AD7rxbPB4iDu4K5GTmuj8SeJoho5lhYYZO1eG6x4yiXVmkSQnDjB7da6ibxjBqmjxxrL8wT1oAqf2iGneZx8u4kNXD/F3xTaCwaO3k+YDJrb1bWlsrd45SAQNx968P+M3jC71FWsND2+dICFBbHPpQB4L8cfFc2ratJapJghyDg54rzwsUZhjPuTXQeOvDvjOy1CS78Q6VNCGOQ5iO0/j0rm0d92wg9etAFkeVIRtOMjnNOQZ+UMMCqyl3UunQGlExRcYxQBiqwXnmkAZ3yTxSYy3Awf7x6Uqs6jBGT2I4oAkAYR/KehoO5hvxyMVoaH4Z1zxBOsOmabLLk8qi1678LP2Z455RrPjtzHbowK2wHzMew9KAPPfhtNrNrqcflWspgZsu+04r6c+GvifYgWSXa4X5QDWL4n8NaH4a8PXOoW1jHY2FsnyRRrgyH3/SvO/h58WEGsgzwiNS2EQHqKAPp7TNauLudZmmAwOOaZr/AIi1BrxIzArDb98E+lcz4U1qK6t/t1sQxPVSelM8TeIpNPb7S4UcgDDZoA77wLrxtZCJWXczc/NyBXq3hPWYSmxpBhxxzXzJo3ime5iEm8h2fAIGOK9K8K+JboWkcjXgGB8oNAHt0Mv2qdoCAFUAhquWtitw/lg7gO9cJpXjEPbb2f5jgDFdR4Z8SQzHCzDgc0AdvpMccEXkxTn3Bqe9f7JH56McjtnrXN/8JMYLxUhQYdsbh2qfxB4iksLNRMd4LBg4/lQBv6dq9xLbs8q4ZeQKc/iW2ZAxJEhHIrzOX4oFgbVWxIsuTg9VzUsHj2z1GV4w5jbedpHc0AdnLqAkd5ZJ+ewNVf7GsL2ZbsLyOTXMS+I5o13XfBPC7TnJqxp3jGJYivnDA7HrQBs+JJ7bTLH904wfvYNeX+NPGkVudnO0nJJrovFnii3ubNo4pvmAyMmvIPHOvw7CJWziXBx6YoAydX1dBeyXL3H7tjkYNb/hPX4JrVStzlfc15bqmrGSJoIZg3mEgZ6iui0CW0sPDouZZ9jIDketAG58WPFiWtj50c4AUcYPWvmj4na/rRYapa37xnzQUZDzmvQ/GPiKXW5hbxy7ogeQTXE+NdCt2tEglU7WYYPpQAzw3+0Dd3NjH4a+JdoNY08/KBcfM8Y6ZGTj/wDVW5rX7MHhXx7ojeLfhBqpmV03NarglD6cCvKNf0W40ckMAU6rjvWj8M/jD4o+GesR6hod43lZHnWzfdIoA5XxX4M8SeBr2Sw17TXiYHDNtNYT3eGBMpOf4cV92eHrT4Z/tU+DJLlbSCLVFi/fRgDOfavn34vfsh694bmmvNCjMioSTHnkUAeL+HPBuv8Aii8FnpNjJJu64HA969f+G/7L+mzSJN4nvTcSZyYIFyV9jkV6f4R+GnhvQbdcQdOihePzrsLN0t1WKziCjHBK4xQBW8KfC7wz4ctAbLSFtVjXkBOW/OorizD3b3DH/R7f52jPAIFdBp1pNcQs107lm6YJq4/hiK606eFR80kBTGPWgD5D+K3xZ8QeLtTn0qecx2kVw6RxJ0IDYGfyrlfD1tPJqSXEZIEbZxT/ABpaNpviW9sHzkXT8Ht8xrR8DQx3F66yuQTHge9AHq/w68b/AGa2WCWUjaQGPrXQ+L5X1SyWWGXIGD8przzwrpssu+KIfdbgDvXZ6ZdQwacbC9l/eEYVTQAng/XZ3le3CtiM4yzZr0LwzqsxgLFiQTtXnpXjLXV3oWrMsUuFYksP5V2/gjxXF9mDXMuQW4+tAHv3ha/thagXEo/1fGfWt3wnrVoPNiNwAxJxzXk/h7xbBIGiilDBV55rY0nUzDdebFIP3gP8VAHr6a0stgoS6AZDyT3q3pXiVrqALOVeM/Lhq4DRLqWeyeSVslScANV3RHmaB1kLDnIGaALHiO+stLvXa4t9hkyQwFYWh31xHq5u2kJjLZTNaniWw/tlVuLmU7AuduecCsee4t7azc24+VcLGD69KAOt1LV2ubZBGwB6gjnmsXVNVk07U1jlYqAvPpmk8KvujMF2wyq7+exrl/HHipri9KMrfIcMV70ATan4yR7xraaUg4JBBrhPFerBtxabqcjJpmpa0LWd9RFyDjgITzzXH+PfF4MSBVHI5I9aAHPdmW9EMbgkngirmuale+WmmW7EhwMkVzXhOK71KXfGhYnkNnpXWW9lcQBFkTMmepGaAMyz0c+cIBGcqSSxrG+I1q1tDFHnkNmvQodKZVWRE5P3jXJ/EDT1n+SRM4fIoA4vxLocWreGGuFXLqOeK8puw1pO8OcA4BJr3nS7BJNKlt3Q/MhyDXiPieJF1SdHX7srDA74NAG98JPit4j+E3iRNX0m5dQWG9FbhhX2NoXiW9+Lvw7i8eNpwhSdApAH3uvP6V8I6daT3t7b29uSDLKq7fXJxX6SfCnwOPCPwY0LwybcBoLICZSOrbiefzoA8Xt7CO8+WCV2I7YxW5pGmQW4Ec/zZXq1IthHa3DW1u4UqeSBWjaW1tdgO9x8ynGPWgDR060hNtvUY29RW7o1mhHnmNclegFUtAtFIMYTI7Zrf0yy8gBW6NwMelAHwh+1R4Ol8J/Fm9VIQkM770OOo4z/ADrkvBlyLXVULOCp4wOtfTX7efwrvNT0e38bafal2tlKzbR2Jzn9K+U9PlFlcJKowQ4yD2oA9o8DRLBqLIQTubcPpXVeIPCI1CA31kNsyj5Oa4rwFfvd3MNwpGMDdzXrukhJLdFYA5FAHkOqRXMVztv4wJFGM54NUrfXG091tHLLls5HSvT/ABt4Htb63aeNCHz8u2vN9U8OXFszRTL0PBIoA6zwv4oj0dJC8+7zD1Z+oruNE8Sw3UsZWYgbSRzXhc1vPG+Jp2xFyMVt+FfFF/baikk0rNGoyozQB9D6D4uksJjBOzbDyCT1rtPD3iKC9Bnj+XB+XNeCaX4za4k+1XZxtHyLmul0j4lrBKJEnGdvzKD0oA9cvr1DIJ45Rj7p54wa53VNRtBKqQkOsTFmCnqetcs3xMkvkESHg9cVh6z44h0m8aSVidw5UGgDvNR8QiC0/tCCbbvyDz3rgdf19bO9e7vJAiyDOd2RWNe/EFdRia1G5Ys5GDXG+Jb28u2MC3bSRr93cSaANHxN4ze7m8m3BIbPQelc8sepeItRjtmJK5x0qfw9oWsa1chhbuMcByO1eleEvhzb6btuZv8AWEZ5oAq+G/C0mg26src/St7TNOmup/NcZA6VoJprTuIUHStzSNEW2Ic0AZjWTW0OZF6jNcR4xs2mkLgdCa9K1WNGD7h0FcRr8YcsgHHPNAHIxOttaO44wvNeA+K7nztWmki5Pmtk+nNe1+P9WTQfDsu5sPKCB9a8HvZJp7luMhn6+1AHf/sweDJ/Hfxe0vTjamSBJfMmYDgADI/lX6R3Txi2FpGgCKuFx6V8u/8ABOn4USWmmXfxD1C3K+cTHa7l5G0kE/rX1DdoSwWQAD1HSgD/2Q==;" parent="1" vertex="1">
          <mxGeometry x="240" y="320" width="120" height="120" as="geometry" />
        </mxCell>
        <mxCell id="cLg7_qIMpq1HG2zk-ft2-1" value="" style="shape=image;verticalLabelPosition=bottom;labelBackgroundColor=default;verticalAlign=top;aspect=fixed;imageAspect=0;image=data:image/jpeg,/9j/4AAQSkZJRgABAQAAAQABAAD/2wBDAAIBAQEBAQIBAQECAgICAgQDAgICAgUEBAMEBgUGBgYFBgYGBwkIBgcJBwYGCAsICQoKCgoKBggLDAsKDAkKCgr/2wBDAQICAgICAgUDAwUKBwYHCgoKCgoKCgoKCgoKCgoKCgoKCgoKCgoKCgoKCgoKCgoKCgoKCgoKCgoKCgoKCgoKCgr/wAARCADgAOADASIAAhEBAxEB/8QAHwAAAQUBAQEBAQEAAAAAAAAAAAECAwQFBgcICQoL/8QAtRAAAgEDAwIEAwUFBAQAAAF9AQIDAAQRBRIhMUEGE1FhByJxFDKBkaEII0KxwRVS0fAkM2JyggkKFhcYGRolJicoKSo0NTY3ODk6Q0RFRkdISUpTVFVWV1hZWmNkZWZnaGlqc3R1dnd4eXqDhIWGh4iJipKTlJWWl5iZmqKjpKWmp6ipqrKztLW2t7i5usLDxMXGx8jJytLT1NXW19jZ2uHi4+Tl5ufo6erx8vP09fb3+Pn6/8QAHwEAAwEBAQEBAQEBAQAAAAAAAAECAwQFBgcICQoL/8QAtREAAgECBAQDBAcFBAQAAQJ3AAECAxEEBSExBhJBUQdhcRMiMoEIFEKRobHBCSMzUvAVYnLRChYkNOEl8RcYGRomJygpKjU2Nzg5OkNERUZHSElKU1RVVldYWVpjZGVmZ2hpanN0dXZ3eHl6goOEhYaHiImKkpOUlZaXmJmaoqOkpaanqKmqsrO0tba3uLm6wsPExcbHyMnK0tPU1dbX2Nna4uPk5ebn6Onq8vP09fb3+Pn6/9oADAMBAAIRAxEAPwD8PY0kY54PqBU8RU7UxjmoUbyztzgkdadEQrBjzzQB23hKNPPTIzxXqvh5VjtlQjkjivKPDEhaGNojjDDivUfC8onaKN8nAHSgDvfAWkDKsy8t0OK9X8L6QVRS/NcL4G05iiSgEAAd69U8LWbtErjpkZFAHReHrfEgwu0V33h61Plq6jn1NcvodpFLgbADnk12ujqsCCDb260Ab+nQfuhxzWxaR7GViueKy9PGNoB/Wtu2UIgB6mgC0pBG1e9XdLgV26/hVKFAE4P/ANatPTEVpgI+mOTQBq2iIAPkHy1ajnIhEar35qrAAr4LYB7VZgZVBIoAcUScbggHaoLhePLboKl8zbCSH5zUF0waLdu5PXFAFe5dAmAKoXIDLjvVmfOMKM1VlUJ80jbfrQBmapDj5uKwdSUsSAPwroNSYFcd+tYd5GBIcflQBzOt2XmR9MVw/ijSwqONmSentXo2rohXDDFcd4kRSGVBnmgDyHxFp+wSbjg84rz67091uWck8N+deseMrJG3qODivO76yaK5Ls33egoA5zxdGG04SFAOMYr51+JtizatM6pwRwD2r6M8X5W3MgORjpXgfxJJF7JJnGc8GgDzO4QKSCvIqOFixBPap7mYG4kDAY7HFVwSpyvFAFPyvNJaQ4AFOjQOgCkAZpsRbGWORUgCqwAXg0AdF4Wn8po0Emfn9a9h+H9q888cm7rjFeJeH9n2pcA5zxXuHwol2Wi7z83GM0Ae2eCrZ1RYwD0Ga9M0BTBEqivNPAxaVhh/TNepaNbh41jzyV4NAHUeHJFkYZU5rsdLLhQSK5zwtYIu0sMn1rqYIpY/ung0AbFkW2AnrWzayv5YBXNYVi8pKq1bliHc4HSgDQtsvjIxV/TvM3sV4AqrBFIqcDPNX7OEj5WYkelAFy3uXJywzjpV2CQhRkZzVKNFXCipYbiRWOBxQBZuFVVDdjyap3FxHjahOasSTGRMleahaBHHzIAaAKrTZUk9RVW4d2HPatCW3RcgL261XeHI5HFAGPfkyMcDoKyLtC3Pt1ror+0VEZ1PbisO5KbCrDn3oAw9RiDpgLmuR8SW8kSmTZtGTXa3yoDwa5fxYhkhKg+tAHmfiWJJ0cY5rz/UIGMrs8fQGvQdeiImfD8c1xOvK0c7qOAT1oA868Yz/ZoWLjPHSvAviRcQ3E8kpYDk4Ar3L4pyzW1jI0Yyw7CvnLxtfmS6dAc4bnFAHKT4DuGGT2NRLvAGTU5R5WaTH4ZqMMecr0oAzwHWM8j8KkiMrhQB0pNuAQTj1px3Kw2HjFAGr4aJ+3qrdc9K9x+HaCO1TcMHAOa8N8LlhqKHr8wNe6+Do5orGOQrx1NAHs/w52mQIGzyOa9e8PRo5TJ6AYNeHfDe/ZrtQr4XNe0+GNQhCKGYkYySBQB6Foa4VFjH49q6K1Rh/WuV0fXYEt1SJePUrW1HriRQCRpgo7UAdJY2pdwcnmtywhMWFZ8E9PeuGsvHtpBIIZpg3pk10eneLLOVA/BzjAWgDr7JWUAP+VXoRjjA+lYljrsBjCRzBk65I5zW1p93BIu4kEmgCUkA88fSnRHGT7UPsZwVP1qUICPl59aAGiQkgGpo0LH5lqLy2LEDjFWBIkY6cAcnNACOEYnKYwKqTrHtwMc1Jd6hGWKIw4GeOpFYur+Iba3iMiE46EHt70ALfyxKrKz9K568aJmZt/eszWvGYTeFkB+bAyeorn5fF8sziIOeevFAG9fypniud13yZYirHnBwKtwXV5cIWb5h2wKx9ettQKF1ibjsR1oA4HxMEtp3ZjxmuL1lEu7o+WeB0rp/HOoiGJvPUq3fiuJTURcMSh+UdWIoA87+LUuy3mjOOFP8q+Y/FIZJ5peuXNfS/wAZEjNtLIrdsk18zeLVKXLqW+UsTQBhyu6/NEvJNNViWygzzzQzgnarc5zg+lJCgjO0MSSf0oApsWPygdafgCHoCfpUSOMDLChmkQgbjg0Aa3hdiNRhH+0BgV9E6HYuNBimTIJQcY9q+atOuZbe7jnjRmKnO1RkmvU9D+OeoRWcWiS+GLgKRt+0kEBPfkUAepaH8QNM8OSJHdtITuxtijLHP4dK9I8N/FfxJJOlnpPhCV43XK3BmUg/UHmvIBo76WLeVGCs4EjseSd2D1r1D4d6m0MUQkZeufrQB3uj6r8c768D2k2lRW5/5ZzRuGA+oOK6S48JfFDxJa+TJ43fT3HX7KqsP/HhVPR/E1pEgEsmDjrXQ6d40022Kia8RVHJJagBvgf9nn4kaprtrb3vxklaOVxue4sI/lGepwa/UT4Vf8EavhlceEdL1K++NtvetPp6zXbQz7SXaMMBwxChSea+Ov2JLX4b/Fz48eGPA/jHxFCunahqIjvGRwreXtY8HkDkd6+5v20rL4dfspeHrDSvh942eBNVs2xD9oU/JnbkYHT1oA/OT9oaw+IPwR+Nmv8Agnwtf2Wp6TpGoyW8TqjF5ArY3A5xis7wr+0fHHqkej+K/D97YFjhbqWMCJvxzR8StUh1XXbnUbW9EzSuzM5frzXM+FRpninxDF4U8QW+Um+VGH0J4PagD6F0jxDaahAs0VyrKyhlbPUVc/tmzgIMl3GM9MuOa+B/DR/al+IF/eaP4d+I1tpGnx3UsVsHiYyhAxA+ZW9PavUPC37NfxstNGeHxD8d9Wu5ZYxtmW4J8k+qhhxQB9VS63aGMSidCoOPlauV8f8Axi8OeDLbN9I00snEVvFy7fQV8rfEH4R/tZeA7fz/AAT+0Lf3kYORHqDQgD2+5Uf7OPiP4gaveeIdS+Neqw3+paTNBDA6MrL8yk9gBnAFAHuMfxV+K3jTUo49B8JRQadLJh59RnMM0an/AGMYP51+g/7Pf/BLD4a/EfwxYa34z+Ndvqr3lr5kmnafcqkkbEZ6o5PB9q/OLTvF9/qdwqwEIm7qelfWf/BPz9qHw98C/iKuu+MbeW7txZvCI4SMgsRyMnrxQB5d+2x+wjrPwQ+JF9oth4kvrfT5JmNi7StnZk45PU4xXzjrHwL8ewOz6f8AGfXrbn+GRGx/30tfe3/BUL9vj4W/HKPQtL8No1lFpzSvK93tDuWCjHB9q+JNQ+MHh69Ypaa1ayAnhRMtAHJN4F+NulYFp8dNQuQP4bm0hP8AICnXPiD4y6FCft+qw6kqryTGiE1uv4yhlBcRKB2YNkVma1rCXVszoRnGaAPNPF3xY1G5aS28T+C7iyA6Xf2hWQ/gORWT4c1iHVo5HtW3J/fq/wCNNUW6EkIQH0XHWvGfF3xA8c+BPEs48NeGZLyCUArHErHZgc9AaAOu+MEedBmY8jB+avl/xdKWuGA9TXqeqfFvx74v0i4g1XwbPbqOCXQrj8wK8n8TSiaV8IwJbgelAGQyhQGYZPrT4H+bI60wFwmCOfQ06GLJB6DPU0AZ4tvlVxzk9K9I+GXwaXxLFHqOrIyRyL8ueK5P4e+HD4u8X2OiW4JMsy5+mRmvt/Svgva6VoDRrCESCLKHFAHzEPhppOk+PbfS7JC6ZG4E/SveU+E2hXnhGS2GmoWkiwflrzTT7Oab4nXSztgwS7R+lfR/g7T47/QWhQFi8JUE9iRQB51d+FoNQ0O31C1gG3YAWA6gcf0p2iwXliwEf3RwMjpXaeEvDv2Xw3ceGZGHmWDmNNx5Ydc+/JrMOlHzmQEDacYAoAz7zxLf2zeTAhc46VkX+oeJNSs5We6eILzs56V0lvorrqAkXB9q6mw8M2WpwLDcW+GYYJ28GgCj+yv4w8IeF9XlufE+ryW5ZDsnV8MGGehyK6aHx3rfjz4gzxxeIdRubKMkQGa6kcIMjpknFZ9j8AfDeqXwuE8xY1PzKjEc16j8NvhJ4c8Lqz6ep+bqJSSf1oAxba+u7W4FjeAyqxwrDgj606/u4/C2q2/iUTbVtxI4we4Q/wCNd1qvhjR4YzIbFN2OXA7V5L8bb8aDoXkaYNs0sypEi85ViAx/KgCp8DZy723iJ2JfUc3AA9Cxr6V0m7U6XG4GWIzknpXzf8LrkW95Z2WwKlpbLGo/GvedL1FWsVAP8PFAGD8VponjRXm2oD849OK+fPAcM/hL4h+IfCmpXJzqupRS2yODlkVMZH4mvbfiRdx3WUQbj/F7Y5ryzx9fqfF2heMrmBd1qBbSOvUR5Lbj+PFAHsGleGrDSrNZTJ50gXcYh9Kq23iLWBq22zdoLfOSgH3h6Vs+DpbLXrGK+glBdkHAPb0roYNA0yUhZLRVU/xY6GgD5v8AifrcOmfEez1DxlBcXOnxSZkh8wjeuRkV5z8XNf8AC3iDxM154EsWtIWfMcan7o9DgDJ96+rviZ8HfDPiW2Jv7ZZRj5XxyK8qT4DeFdCvTJ5BlOThSKAPNfDfivxXolsiSO9xHjkHPFdVb+LI9StmVEKtjBB9xXQaloFtaxNbWmmKmBwStYVt4bS2nkbblyfTAoA5+30ebVNWBkQld/pXS/DvwnpGqapqzm2jc210YmIUZXCjNWdOhs9Nt3v7xxHsRyCTxnHArW+Bnhe60bw/quv6kxZtU1SS6iDfwqwGKAOM+L/gex/sW4gt7NQ20nJHbFeI/B74TeGPEuvahp+uabFIY/mU85Az/wDWr6b+JMKz2EgBBJBH4V4f4Ahls/iTNZW7bTdHacccAn/GgDy39of4P6HoNtJqHhu12Lbt+8wOK8SiV8FHPAyeK+6P2gfhmIvh9qoMYJa2J3Y7+tfDNyGtrmRQ+QHPH40Adf8AsvXFpa/GHS3ucAO+xc92JAFfob4n+zaf4KnmnYZMGRX5mfDHWjoXjvSdXdvltrxJG57A5r7+8c+L21fwVBb2jbmuLNWOD0+UUAeAaQ8dx8Qr7UO0lwePyr374d3wt4442OFIz1r598IROPEtyZOSLg9frXtHhvUEhjTcARgcUAdJ430HUrm+/trwpOsVyF5hbO2T8q5Jtb120uja694Q1AN/FPBb5T+dd/oc8t0yjOQcceldvpXh62vYVSWJXB7FM0AeNaf4o8KwOEvLl4Se06hSP1rsvDPibwbIE26vA4A/56j/ABr0H/hS3g/WB/xM/DVpKD1MsANOs/2bfhTDOJU8CaeW9fJx/KgCt4c8R+ESQE1WBPdlP9BXoGmw+H7zRJtV0/xVZSJb483ynO4E9ByOtVdA+Gfg3QyqWOgQQ7egQHH6mttrfTLKFrcWabGGWUIMEjpmgDldU8RWy6U97HEZETIkWY7Wf2FePePjP4n1X+3L2BbeOAEQwbsgD1/SvWfG8Au7clIlRVPKqAK8b+I+qi33W1sBhwV68igCX4eRl9VLIwbLckD3r3PSYWj04O5xha8R+ElnLLeoztxkV7nbkLp/lnj5OKAPPPGl4V1bax4IOaz7vwxp/iLT3tZkyrJ26ipPiHKI71pT2B6VL4M1CG5gMZds4HQ0AHw71/UPhvMum6jo1zewtMAk0TgeWvvnrXrr+M/B1vpK6jqWpfZQwztmfpXIaZpCX2C3J/hGOPxrtPDzRW1oNPvbGGVD1EsQP8xQBzWq/FbwV9lIt9cguFPTy3BI/CuX1z4neEXhMhiu3bHBisWb/wBBBr2C48G+FL+HzD4asP8AgNsgP6Cq6eBtIgHmWWkQw/7SRgH9KAPmnVPjR4Lu7ltPsoL6S4zgRvZSJ/NawrrX/iTq+ofYNB+Gd6EbhLucKUHucHNfVF14Lst5m+yR7u7lQTVG68N2aHPk5IHZcUAfOmj/AAe8Z6xcQ3njfWfLjibc1pbco3OecjNelwLFZaStnAgVI02qg9BW9renC3jdRwCfu4rlb66NkrIx4IoA5Lxs5+xy7W65GPSvH/C8Zh+LsWyIsu1juHY8V6r4zuQ1rIobls15f4MufL+KlkWTIll2fmf/AK1AHsv7QT6cfgzfXw2krZAM3ocV+Zdy5eZnHUsa+5P2x/G9x4b+EWoaRDMQ0lxEhGexP+FfDE4A/eK3uPrQBT02SVbyFkx99Qcr7196+DEE/giG9uQrH7EAuR0GMV8F2NxH9viYt92RT+tfcXw88Radc/C2xzONxtAWGaAPN9BQjxJdSrxm5fp/vGvUPDTkKC4zj1ry3RbqODxHcpEchp+Pzr0rw3cuvRQc4z7UAen+CELzK5PHpXqfhLy8BGTHNeW+CmQQLKG53dq9K8MXiuEXf+NAHdWChiFbpWhEqx4IUGsazugiqAa0YbveV2qfzoAsSOxcsFwKhuFXbuZu1WYcMx3A9KiuoiwO0dqAOD+Id2LSwkcthdpJPpXz1reozazrDbAWjDkCvYfjdq0puRoFqeWGWOe2a880nRraXVoreOMDBy+eeaAO2+CvhW4KrLIp9RmvZW0PbZKAOStVvg54QtntIgAvKAk16FceFkEG5ACFHSgD57+JHhiVGdz3ziuC0TUZ9A1lYpsiItgmvffiJpNs0biYAECvINZ0K2uJHRYxnsR2oA9D8Fzi9gDxuChwciu2s7IzIDtGM5BNeS/CbUp9N1P+x70kK33CT1r2rT7djbq6DjGOKALGnW5SMEn7orRUeZFz6VTiikiBUetTPKY0xjtQBFdRRqCxUHHQVh3/ACGATArUuZ3bPOKxdUnkJK7s0Act4nVWj3E857VwHiQfMcN0rvPEUqeWUI5rhtbXeWBHagDzbxtclYjGpOSevpXnfh+9hsfiNYTPzi5+X2wDzXoXjtDGrqccAkV5pok1onje0+2EfLIzZ9OKAKX7e+oM3heKHgia5jZiB1wDXySyoQG+YDJwDX03+3Z4hs7/AELTYLS5BH2rGc+ik18wOyyDh+hoAghjgN0JA2PWvrT4PaFcXPw0tmMzFjCAFB7YFfI0UsQlyM4Y/P7GvsH9lPxXpniHwZDZ7wXhBR1zz6D+VAHLRWkukeKJoZlIbzMgH0r0rwxuuI1eJuMgNiuB+LCtpvxNAtJPkc8g/jXaeC7/AGQlGHcZ/KgD1PwxeLb2ywkclq7zw1qKR7Ru5FeZaHcnYryDt+XpXZeGLhmZXY8HoKAPU9IuWljVi3XFdFY4DKM1x2gXHmRIyn73Wut03oGLc0AbFtGGOSOKmu4gsDOqfw8UyzbkEY5HNWrrZHbsC2SRwKAPDPGGjSat42nglTJwdh9s1zGq+CfEHh26OqW9k7xKcsQK9M8X6LfW/iBdctEzyA5HcVr/ANt6deaS1rcWylmXG0rQBj/Cv4p2TWCwCQCSMYK7uRXoFt8VEjtiiyKAw+bLV4xqnw91CC9fVfD42Ekkqvf8Kz3ufGETfZZdNkz08zHA/WgDq/ib8SrcyNIbjK9wDXH6FqV34gvd9naOYifmbFbPh/4ZXviG0eTVoiWbkZFeg+B/CGj+E9NaO6t1IH+zQBxt5pcmnTW99GhQhgc47V7N4UcXOkxSOTygz+Vee6/bnW9WSCyh/chvToK9C8LKtvaR27EcKKANOdAqHaccVBI3GGNXbtYRHlSKzLqcbiGHUUAVL+QqpdD04rA1W6K5J4rauGUqVJ965bxFc+W5G76UAYOuzySMcfrXJ61MTuAGABya3tRu3ZWDdc/pXM69cwrG0RbDEUAeb/Ei7IhdlUHCcV5p4N099b8exI4JKAk/Tiux+IGqIJntS/AzWT8CBHN41ur6dBsiU4Y/hQBxn7bvgm1XwQmqQjYbWUuM+pAFfH5u5txAcjJ4xX1x+3X8RtN1DTU8G6ZdKZHfdKFbsCDXyu2j+dGZEK5HAGaAIFePJ2KOuT710/w8+K+vfDjU1vtGmKoDl4c8NXIFWV8Bqf5TY3EigD3EfGBPifq0GozWggmT72GzmvWPBOpRTwxlG+bgkE9a+WPhzdyQa0gT5Rg9a9/8D6lN9ph2p8mBk0Ae46Xf5RAqHAHPvXWeGL/dcqqMcehrzXR7+V1WNSRk13fgm4VpcbcnuaAPW/Cs3nOjDO1TXbaZOpXla4PwzcBFjRF+8ea7KynRIjuIzQB0VrcgKNgp13e7lCFvwrCOspDwJQAByc1R1jxhDZlI4fnJ6mgDT1PyJFO9gQa5e/a2gvA0LZwemao654vlgdMy/K6kkfjWFPrN3eXiTQxkoDwaAPTvD8tpeRjKgE9q128PWEg814Qx9MVx3gRbkv8AabgEZPFdlpclx5bO+evANAEzW1paWx8pAhA6YrA1DUElcxJKCM4YVo6td3H2dvlPU8ivPtW1Key1ohZCVIyc0Ad5pEFtHhkAHFdFpDjcBngV5rpPjeMjYoJZOpNdRoniuOdQ8fHqBQB3EkgZNq+lZGpMYW61FB4igbkyjpwKo6hrNvcE7Zl3elAC3MmIy5PWua8TyJs3AZNbT3aSxFd/Qdq5rxFOSrFRwBQByt9dqzEOcZJFch4imWMu5kz2rf1edXQ5lAIY9q4nxXqHkXBPVCO1AHmfje4F1dTsozsB614f45+MXirwJqDab4b1TyDLF8zI3K17B48meJ53tnBU5zz2r5h+JBg1DxBI5jbduI3EnjFAGJr2u6hrt42oareNPPI2S8jVAqdiV6dmzTP7Oh8zbtYj13VJJYwRxZDY7ZFAHNBpCwG45qUpOE4JOKdJGiTL8uKtJGmCwHb0oAseEpmi1uB5iQrHBFe8eC7p5oIhAx56H2FeB21wbe4hnWMfK3Ne1fCzVvOtEmYdR8ozQB7P4duZURfOm5I616H4I1EW8mCOpwDXleiahHNbBSvz5/Su48I6oglSIyjO6gD3DwhebVV3bvxmuhn1d13FDgAdc1wPhrUJBFHhsityW8k8pkMmS1AFm8164uJWhilPJxgGlW5lSRYJ4WJ25yfpUOkWUTSGZl+YCrHiqG8t4EvIFztXkUAVb61S/i3Ackce1X9Hs9MjRIJ5VXBy1ee3vxCvbOdo/JcAHGNh5qBfG2t3blodPkC9jkc0Ae/eH9S0KDbELhcKa6S1v9LnQPHdpgDkV856d4i8V8CO0IXFacXiLxJs2/Z5Bz2JoA9y1TV9DW0MJmjJ74NcD4jg0yVHmQjcXOCDXL2up+LZkx9lJB7s1Ralc+IkXyyqhvQrQBsaXpMVi/nNc7xJ2z0rUtNXt9Kma3jfORnGa8/utQ8UQDMBQjsOetUrXVfF99qKJ9nQZPJ3GgD1601iQ+XdEEANkms/U9TvYdTM8EzFe4xWj4N8N6nLpkU18y8jlc5qxrWkRW0SsEG1RhyRQAaLqYvIfNeUZI5BFZvi2YRQsEYciodKjNmkjCYtlvl56Vm+K9QKwlHPJFAHIatLkyAvz2rhPGGphLcwkjdmur1aXMhVVJ9TmvNvHt7Fb3ePMJOeQDQB538RfEX2CzuFzyVI/CvnPXdSe8v5ZnIJL/pXq/xp18KJYY3ILZ28147IodSxI3E5oAaWJYHbTNR/d2pYD3/GpFRnYDcM+lQ6k5ihCs275uRigDBnKhUO7JqwsuyIkng9azRuAGTn0qwk58naSCC1AFq0JYklseld98J9clFwLSR/ufKvPWvPN+F+UcrzWp4U1uXTdZgnD4UkFqAPp3w7qJ2RliN3YV2Xhq6lkmLvgNuyCOK8o8Ga4l+glM2SR8vvXo3hrUIYgFlk+b0JoA9m8KaukcMSk7iBzmumW+yBMy5FeW6FrckSqQ3FdhYeMbc2y284Gc9aAO88P6gzz+WIsrgFq6PUhE+mkNFwy/KDXE+G9YgeRZImAU43V2E2px3VuV6grhKAOB1zSIZrgt9mBAPTFNsNJhDDMSkDse1dbPpK3OWC5qCPRMfcgPFAEXh3RYJZsTxnb7V1UOhafb2/7oKfrzWRp2nXAfbHclf9nmrBmuoZDF9r2gdST1oA1Fs4IlGQMY7VQ1ext5F3ogz0FPjtb+5QBrrIz1Bqd7a2tG/fyFvQUAczfaGCpPQDkVT0PToo9UDb+h44rWv7mW8uzbwqQo6cVZ0zR1hmEzr0oA7zwvL/AKIgcD5VOBiqfiy9iW3ZWTaD1FU7TURBFh3wAPWsHxb4oM7raRzKBnqaAEu5PsFobpHyGOcelcl4u1w3IVlx74NXdS1K4eE2ouA3GciuR1u9ILRP6HmgDN1fVmUSDdtbJ24ryvx3qafaWMr/ADE/nXY+ILh4LSSZnJYA7d1eMfEPxO0FtIbh8MvOTQB5N8WvFAv9SktEOHV8VxTXAUeYWzhefrU3iS/lvtWmuC4ILHBxWcJSEICnmgC5DcBpBKQeaW6RZW65FQWkqlMuORTvNG3GzHvQBzgkBTaAPrQvDAnsaaAQuV5HrQGHA5PvQBM1wTkAdRihJDGwKtyMfKelWtL0DVNXcQ2Nk0jk8Iq5Jr2LwN+zEsujrrPjW8aIsA0NpGuWb69xQBkfCbxPPJBsEmRGo+X0r1zwrql1duC2Pm6GuI8U6L4b+HNlH/owtmlwEi3ZLDjk+lbXgLxBb3EKvDLkY4OaAPX9NuZ44kIcHjDCugt72EW63TbSV6A15jputy+YEkuyrbvuk9RWvq3ia8hgSKKMFCOSG5oA9V8OeKBFIDHKFJ/hFdtoHiC4VgJJch/XtXgXhPXLppUnaUBM8hjzXe2PjXZGpEw3AfKAKAPaE1IrFwylSuBit+xjtZAsORuIHA715Z4a8VpNFEZnyGUcE9DXT6F4smF6EHJxu/CgDtL+xtrRQYVVHI6iuZ8TXCWN0odxtY5aodT8ZNc3KSl+MkEA1yvxGvtSu7M3tlMdp44oA6S38T3KFUhnXa2ccdq19M1WCeYeem4Y7mvGdO8VXltdLa3MpyrbOT612VpeT29ol0lyxDN0oA9Lt9I02aQXUSYz19qg1Qw2MTtkAjoPWue03xfHDEqyTHgciq3ibxMl1YGW3m+f0JoAkm8WxeYYGfGBXGeMPEatcCeKbYQ2CGNUNT18xyMHcKW5De9cD4z8VzTXM0KXP3Dwc9aAPQdP8SLfxM6yEkEj5enFYfibWndXhaTG4YHPNcX4P8XM+Y1kIJz3p+vakzxtN5pLAnvQBV8U+IHltyJ7j5FH0zXjni61ufiHftolpqkVoXyqeap+Y/hXWeL9ZkumECE7SMZBryb4lvPb3kUiSsgHO5TigDn/AB58H/iB8PD5uv6PILeQ5iuUHysPUc1yryyoNjOxH+0OleufD346apoCDQvFiLqOlS/K8Uyhii/7Jxmuw8Qfs1eCfihob+K/hRegM67mgd8lT6bSaAPnSN2QbtuRSm925Vl47VqeMfBPiTwXePpusafJE0TEFmX5Wrn5ZiSX2cdhQBc8LfD3xZ4vuVj0fSnZWPzPt4WvX/An7KNsoju/E+rLM55EEWDj2PSvU/DvgTR9CtUhJXan9zj+VdTZ3FuJYbfTbRFB6MV5/OgDmbP4aeHPBmlrNa6bArAcLgFv8azfFvjPT/AOi/8ACRa5G7sxxbxB/bNd9d6HJqUzLLyR0rxP9svT7vT7fSYWJESgYXtnaf8AGgDyz4keOtU+I+utq1yhReFRB0AHStf4f61e2bLb4wqdDnrXCwErN5Z5z713vhbTT5luhbG5c0Aen6NqDzIt2z/vO3FX9Q8VPaQ4dkZvda5WG4u7BcO2ADxgdBU2pWcktiL2GcsCuTuPSgDovD/ii6kuh5+FUnORXceHfEKPFy5PHGa8Q0TWc35t1ugSmDgtjPtXeaH4pd7iO1SNV2cNg5oA9r8HasoKmRyV/lW8vjaGx1IrA+fl4NeYaH4hS3byorgMMfNitWLV7d2Mqjk9CaAO/k8UKsSyQPlzIO/Y9a0ry7+2+H3DSbSp3GuD0+Zp41cyDrgc10kErTaVK3mkoAA4J64oAx4JYdTvmmeDY6DJZeQ5rbg8QXLGOwUDCsMgVjrIljNtiULE67gTzj8ag0S/aPVWvZwfLZ8rk8EUAdNqOsmC6Vkn+VfvisuXxYX1B4FuRsLdz0rD8Q+Jmg1gi3RXRl5ArntT1i2a8+1q5C45APegDe8T62gDLDOrAHs3NefeIdQkZy4kUjqcsMmreu6pGlv9rRyqjli2elcL4g1r7RK0qXAOR8hHTFAHU6RqJlRDp2BsU5P40zUfEUyhrcybt2d2yuc8P3d1Y2JdZco3THcVb0q2uNSmaSDgg85oAjtLGa7kluZM7VHyRvxXH+N9Otr+8FpKnzEHAx/WvUzpRtrYb0zxzXnfjdPK1lJIR91+lAHlviTSZ9ImMDqdg5Qjitn4UfGfxL8LtYjv9IvSsO8GWDJ+b61ufE3RxdaJFqEEfzLjdgV5i5aFsYG3ccGgD7cs9L+HX7UPw/bVrG3hW/VB9ojA+YnHPevnD4tfso+IfDM73Wgw74gxyhOCBWT8EPjZ4k+EuuteaQ7NE5/ewk5B/A19faxBqHiHwtZ+KL602G9iDOhX7uQKAOMstMuXVfPcMpPpXQWWjQRyxDzgu0DAqHT4pJY/IeJAR92trTIJEuFEyqSBxQBNY2eJGRUOQe4615N+254TE/w9s9bKkm3nJYgdM4Ar3PTtPVZt0vf7prE+PXgqLxl8KNS0YQl5Fj8yIY7qCf50AfnyjKSsi5J3ZNej+EALn7HMhOSMfrXnmoWM+mXklhMpR43KOD6g813Xw2uEd4rfdkgjH0oA9Ll0ea4tB8pz14FZz3b28v8AZl0+2PZ3Wuz0eA3dsqYAUIMce1Zvi3wtFdWxkRMOOhA5oA821KwSy1T7TbKSNwLYNa+leKbe1mMi4GeCSelQXEV3atJbzw4JOASK57U9KuLafKsQCckUAereGvFNrBvklmB82P5ea6Sz8Tw6lKtrafwgZIrxKy1GazRPOYkJ0wa6fwn4knjvFe3c4x83FAHsGk+IJ7eY2rbsKcnmu7sNTtzpPzyceWSy7uteKWniloi87uwLYyc1q2HjuMJv87cWbAyaAPSNX1RLG2kiuIWZCF2gds03S9WtYbP7M8RGUyhI6e9cVN4nMdo97dSbgoyST/SsiX4oKf3Zkw5GI8rQBs+JNakW5MxO1Y3wcHnFcvq/im0gZ7iKRjGcbef4qp654iuLiCV55drYIbPf3rjL3VZZIvskbFgGzx65oA6TVvGl3c6PLbyT/vCSACe1c3pEt5qxjjjUuVfBH1NV5dMv7hRNvOZDjFdn4S8ONaQBYIcOed2O9AF7T9Iu4mSB4wFKDIx0rq9B0eC2QmGIZDYORRoukyiT/SxudgMH0ro7GzEEZJQFuwFAGJqUB2H5eB2rzfxlZNLfK6L/ABc16jqSPhmbpXC+IbUNchiP4qAOb8VWsZ8HXO4DKwnGfpXhd7CDclBuxnnB6V7r4+njs/CV2Gb78ZA5+leE3kri6ZYjkE/N7UAdR8HPB9144+I2leG7VS32i4CvtHO0An+lfo1q3h8Q6Pb6RIgKQ26qMjpgAV8mf8E8vADXvjWfxxd226KzUCJiOjHcK+zdVljun2gdqAP/2Q==;" parent="1" vertex="1">
          <mxGeometry x="180" y="414" width="120" height="120" as="geometry" />
        </mxCell>
        <mxCell id="cLg7_qIMpq1HG2zk-ft2-17" style="edgeStyle=orthogonalEdgeStyle;rounded=0;orthogonalLoop=1;jettySize=auto;html=1;exitX=0.5;exitY=0;exitDx=0;exitDy=0;entryX=0.1;entryY=0.5;entryDx=0;entryDy=0;entryPerimeter=0;" parent="1" source="cLg7_qIMpq1HG2zk-ft2-8" target="cLg7_qIMpq1HG2zk-ft2-13" edge="1">
          <mxGeometry relative="1" as="geometry" />
        </mxCell>
        <mxCell id="cLg7_qIMpq1HG2zk-ft2-8" value="" style="shape=trapezoid;perimeter=trapezoidPerimeter;whiteSpace=wrap;html=1;fixedSize=1;direction=south;" parent="1" vertex="1">
          <mxGeometry x="530" y="350" width="180" height="120" as="geometry" />
        </mxCell>
        <mxCell id="cLg7_qIMpq1HG2zk-ft2-10" value="" style="rounded=1;whiteSpace=wrap;html=1;" parent="1" vertex="1">
          <mxGeometry x="920" y="275" width="40" height="272" as="geometry" />
        </mxCell>
        <mxCell id="cLg7_qIMpq1HG2zk-ft2-11" value="" style="rounded=1;whiteSpace=wrap;html=1;" parent="1" vertex="1">
          <mxGeometry x="1000" y="276" width="40" height="273" as="geometry" />
        </mxCell>
        <mxCell id="cLg7_qIMpq1HG2zk-ft2-13" value="" style="shape=curlyBracket;whiteSpace=wrap;html=1;rounded=1;labelPosition=left;verticalLabelPosition=middle;align=right;verticalAlign=middle;" parent="1" vertex="1">
          <mxGeometry x="770" y="276" width="20" height="270" as="geometry" />
        </mxCell>
        <mxCell id="cLg7_qIMpq1HG2zk-ft2-16" style="edgeStyle=orthogonalEdgeStyle;rounded=0;orthogonalLoop=1;jettySize=auto;html=1;exitX=0.1;exitY=0.5;exitDx=0;exitDy=0;exitPerimeter=0;entryX=0.501;entryY=0.987;entryDx=0;entryDy=0;entryPerimeter=0;" parent="1" source="cLg7_qIMpq1HG2zk-ft2-14" target="cLg7_qIMpq1HG2zk-ft2-8" edge="1">
          <mxGeometry relative="1" as="geometry" />
        </mxCell>
        <mxCell id="cLg7_qIMpq1HG2zk-ft2-14" value="" style="shape=curlyBracket;whiteSpace=wrap;html=1;rounded=1;flipH=1;labelPosition=right;verticalLabelPosition=middle;align=left;verticalAlign=middle;" parent="1" vertex="1">
          <mxGeometry x="420" y="288" width="20" height="246" as="geometry" />
        </mxCell>
      </root>
    </mxGraphModel>
  </diagram>
</mxfile>
